<?xml version="1.0" encoding="iso-8859-1"?>
<!-- Generator: Adobe Illustrator 19.0.0, SVG Export Plug-In . SVG Version: 6.00 Build 0)  -->
<svg version="1.1" id="Layer_1" xmlns="http://www.w3.org/2000/svg" xmlns:xlink="http://www.w3.org/1999/xlink" x="0px" y="0px"
	 viewBox="0 0 496 496" style="enable-background:new 0 0 496 496;" xml:space="preserve">
<g>
	<g>
		<g>
			<path d="M0,56v384h496V56H0z M480,424H16V136h464V424z M480,120H16V72h464V120z"/>
			<rect x="32" y="88" width="16" height="16"/>
			<rect x="64" y="88" width="16" height="16"/>
			<rect x="96" y="88" width="16" height="16"/>
			<path d="M184,408h128c70.576,0,128-57.424,128-128s-57.424-128-128-128H184c-70.576,0-128,57.424-128,128S113.424,408,184,408z
				 M184,168h128c61.76,0,112,50.24,112,112s-50.24,112-112,112H184c-61.76,0-112-50.24-112-112S122.24,168,184,168z"/>
			<polygon points="197.976,346.68 138.704,280 197.976,213.32 186.024,202.68 117.296,280 186.024,357.32 			"/>
			<polygon points="309.976,357.32 378.704,280 309.976,202.68 298.024,213.32 357.296,280 298.024,346.68 			"/>
			<rect x="169.191" y="272" transform="matrix(-0.4061 0.9138 -0.9138 -0.4061 604.5584 167.0993)" width="157.58" height="16"/>
			<rect x="312" y="272" width="16" height="16"/>
			<rect x="280" y="272" width="16" height="16"/>
			<rect x="200" y="272" width="16" height="16"/>
			<rect x="168" y="272" width="16" height="16"/>
		</g>
	</g>
</g>
<g>
</g>
<g>
</g>
<g>
</g>
<g>
</g>
<g>
</g>
<g>
</g>
<g>
</g>
<g>
</g>
<g>
</g>
<g>
</g>
<g>
</g>
<g>
</g>
<g>
</g>
<g>
</g>
<g>
</g>
</svg>
