<?xml version="1.0" encoding="iso-8859-1"?>
<!-- Generator: Adobe Illustrator 19.0.0, SVG Export Plug-In . SVG Version: 6.00 Build 0)  -->
<svg version="1.1" id="Layer_1" xmlns="http://www.w3.org/2000/svg" xmlns:xlink="http://www.w3.org/1999/xlink" x="0px" y="0px"
	 viewBox="0 0 496 496" style="enable-background:new 0 0 496 496;" xml:space="preserve">
<g>
	<g>
		<g>
			<path d="M456,40H40C17.944,40,0,57.944,0,80v288c0,22.056,17.944,40,40,40h104v32h-32v16h272v-16h-32v-32h104
				c22.056,0,40-17.944,40-40V80C496,57.944,478.056,40,456,40z M336,440H160v-32h176V440z M480,368c0,13.232-10.768,24-24,24H40
				c-13.232,0-24-10.768-24-24v-8h464V368z M480,344H16V80c0-13.232,10.768-24,24-24h416c13.232,0,24,10.768,24,24V344z"/>
			<path d="M32,232h432V72H32V232z M48,88h400v128H48V88z"/>
			<path d="M32,328h112v-80H32V328z M48,264h80v48H48V264z"/>
			<rect x="160" y="248" width="80" height="16"/>
			<rect x="160" y="280" width="80" height="16"/>
			<rect x="160" y="312" width="80" height="16"/>
			<path d="M256,328h112v-80H256V328z M272,264h80v48h-80V264z"/>
			<rect x="384" y="248" width="80" height="16"/>
			<rect x="384" y="280" width="80" height="16"/>
			<rect x="384" y="312" width="80" height="16"/>
			<path d="M307.592,112H250.24l-6.4-8h-55.68l-64,80H64v16h368v-16h-60.408L307.592,112z M144.64,184l51.2-64h40.312l29.6,37
				l12.496-9.992L263.04,128h37.36l49.776,56H144.64z"/>
		</g>
	</g>
</g>
<g>
</g>
<g>
</g>
<g>
</g>
<g>
</g>
<g>
</g>
<g>
</g>
<g>
</g>
<g>
</g>
<g>
</g>
<g>
</g>
<g>
</g>
<g>
</g>
<g>
</g>
<g>
</g>
<g>
</g>
</svg>
