<?xml version="1.0" encoding="iso-8859-1"?>
<!-- Generator: Adobe Illustrator 19.0.0, SVG Export Plug-In . SVG Version: 6.00 Build 0)  -->
<svg version="1.1" id="Layer_1" xmlns="http://www.w3.org/2000/svg" xmlns:xlink="http://www.w3.org/1999/xlink" x="0px" y="0px"
	 viewBox="0 0 496 496" style="enable-background:new 0 0 496 496;" xml:space="preserve">
<g>
	<g>
		<g>
			<path d="M0,0v496h496V0H0z M480,480H16V80h464V480z M480,64H16V16h464V64z"/>
			<rect x="32" y="32" width="16" height="16"/>
			<rect x="64" y="32" width="16" height="16"/>
			<rect x="96" y="32" width="16" height="16"/>
			<path d="M464,96H32v368h432V96z M448,448H48V112h400V448z"/>
			<polygon points="349.656,245.656 372,223.312 394.344,245.656 405.656,234.344 383.312,212 405.656,189.656 394.344,178.344 
				372,200.688 349.656,178.344 338.344,189.656 360.688,212 338.344,234.344 			"/>
			<path d="M300.016,224.672l-17.672,17.672l11.312,11.312L331.312,216l-37.656-37.656l-11.312,11.312l18.912,18.912
				C97.696,220.24,64.416,420.696,64.096,422.784l15.816,2.432C80.208,423.272,111.128,237.04,300.016,224.672z"/>
			<path d="M136,192c17.648,0,32-14.352,32-32s-14.352-32-32-32s-32,14.352-32,32S118.352,192,136,192z M136,144
				c8.824,0,16,7.176,16,16c0,8.824-7.176,16-16,16c-8.824,0-16-7.176-16-16C120,151.176,127.176,144,136,144z"/>
			<path d="M328,296c-17.648,0-32,14.352-32,32s14.352,32,32,32s32-14.352,32-32S345.648,296,328,296z M328,344
				c-8.824,0-16-7.176-16-16c0-8.824,7.176-16,16-16c8.824,0,16,7.176,16,16C344,336.824,336.824,344,328,344z"/>
			<path d="M192,368c-17.648,0-32,14.352-32,32s14.352,32,32,32s32-14.352,32-32S209.648,368,192,368z M192,416
				c-8.824,0-16-7.176-16-16c0-8.824,7.176-16,16-16c8.824,0,16,7.176,16,16C208,408.824,200.824,416,192,416z"/>
		</g>
	</g>
</g>
<g>
</g>
<g>
</g>
<g>
</g>
<g>
</g>
<g>
</g>
<g>
</g>
<g>
</g>
<g>
</g>
<g>
</g>
<g>
</g>
<g>
</g>
<g>
</g>
<g>
</g>
<g>
</g>
<g>
</g>
</svg>
