<?xml version="1.0" encoding="iso-8859-1"?>
<!-- Generator: Adobe Illustrator 19.0.0, SVG Export Plug-In . SVG Version: 6.00 Build 0)  -->
<svg version="1.1" id="Layer_1" xmlns="http://www.w3.org/2000/svg" xmlns:xlink="http://www.w3.org/1999/xlink" x="0px" y="0px"
	 viewBox="0 0 496 496" style="enable-background:new 0 0 496 496;" xml:space="preserve">
<g>
	<g>
		<g>
			<path d="M440,0h-48v96H0v400h440c30.872,0,56-25.128,56-56V56C496,25.128,470.872,0,440,0z M416,400v16H80v-48h312v32H416z
				 M392,208v16h-40v112h40v16H64v80h368v-32h8c2.736,0,5.416,0.28,8,0.808V432c0,8.824-7.176,16-16,16H48V208H392z M48,192v-48h344
				v48H48z M392,240v80h-24v-80H392z M440,480H16V112h376v16H32v336h400c17.648,0,32-14.352,32-32v-23.792
				c9.656,7.312,16,18.784,16,31.792C480,462.056,462.056,480,440,480z M480,400.84C469.832,390.456,455.656,384,440,384h-32V16h32
				c22.056,0,40,17.944,40,40V400.84z"/>
			<rect x="64" y="160" width="16" height="16"/>
			<rect x="96" y="160" width="16" height="16"/>
			<rect x="128" y="160" width="16" height="16"/>
			<path d="M192,224H64v112h128V224z M176,320H80v-80h96V320z"/>
			<path d="M336,224H208v112h128V224z M320,320h-96v-80h96V320z"/>
			<rect x="264" y="272" width="16" height="16"/>
			<rect x="120" y="272" width="16" height="16"/>
		</g>
	</g>
</g>
<g>
</g>
<g>
</g>
<g>
</g>
<g>
</g>
<g>
</g>
<g>
</g>
<g>
</g>
<g>
</g>
<g>
</g>
<g>
</g>
<g>
</g>
<g>
</g>
<g>
</g>
<g>
</g>
<g>
</g>
</svg>
