<?xml version="1.0" encoding="iso-8859-1"?>
<!-- Generator: Adobe Illustrator 19.0.0, SVG Export Plug-In . SVG Version: 6.00 Build 0)  -->
<svg version="1.1" id="Layer_1" xmlns="http://www.w3.org/2000/svg" xmlns:xlink="http://www.w3.org/1999/xlink" x="0px" y="0px"
	 viewBox="0 0 496.472 496.472" style="enable-background:new 0 0 496.472 496.472;" xml:space="preserve">
<g>
	<g>
		<g>
			<path d="M0.472,0.236v384h496v-384H0.472z M480.472,368.236h-464v-288h464V368.236z M480.472,64.236h-464v-48h464V64.236z"/>
			<rect x="32.472" y="32.236" width="16" height="16"/>
			<rect x="64.472" y="32.236" width="16" height="16"/>
			<rect x="96.472" y="32.236" width="16" height="16"/>
			<path d="M464.472,96.236h-432v160h432V96.236z M448.472,240.236h-400v-128h400V240.236z"/>
			<path d="M144.472,272.236h-112v80h112V272.236z M128.472,336.236h-80v-48h80V336.236z"/>
			<rect x="160.472" y="272.236" width="80" height="16"/>
			<rect x="160.472" y="304.236" width="80" height="16"/>
			<rect x="160.472" y="336.236" width="80" height="16"/>
			<path d="M256.472,352.236h112v-80h-112V352.236z M272.472,288.236h80v48h-80V288.236z"/>
			<rect x="384.472" y="272.236" width="80" height="16"/>
			<rect x="384.472" y="304.236" width="80" height="16"/>
			<rect x="384.472" y="336.236" width="80" height="16"/>
			<path d="M432.472,208.236h-60.408l-64-72h-57.352l-6.4-8h-55.68l-64,80h-60.16v16h368V208.236z M145.112,208.236l51.2-64h40.312
				l29.6,37l12.496-9.992l-15.208-19.008h37.36l49.776,56H145.112z"/>
			<path d="M448.472,400.236H86.4l-86.4,48l86.4,48h362.072c26.472,0,48-21.528,48-48S474.944,400.236,448.472,400.236z
				 M80.472,474.636l-47.528-26.4l47.528-26.4V474.636z M384.472,440.236h-16v16h16v24h-288v-24h256v-16h-256v-24h288V440.236z
				 M416.472,480.236h-16v-64h16V480.236z M448.472,480.236h-16v-64h16c17.648,0,32,14.352,32,32S466.12,480.236,448.472,480.236z"
				/>
		</g>
	</g>
</g>
<g>
</g>
<g>
</g>
<g>
</g>
<g>
</g>
<g>
</g>
<g>
</g>
<g>
</g>
<g>
</g>
<g>
</g>
<g>
</g>
<g>
</g>
<g>
</g>
<g>
</g>
<g>
</g>
<g>
</g>
</svg>
