<?xml version="1.0" encoding="iso-8859-1"?>
<!-- Generator: Adobe Illustrator 19.0.0, SVG Export Plug-In . SVG Version: 6.00 Build 0)  -->
<svg version="1.1" id="Layer_1" xmlns="http://www.w3.org/2000/svg" xmlns:xlink="http://www.w3.org/1999/xlink" x="0px" y="0px"
	 viewBox="0 0 496 496" style="enable-background:new 0 0 496 496;" xml:space="preserve">
<g>
	<g>
		<g>
			<path d="M496,0H0v432h32v64h363.312l-64-64H496V0z M356.688,480H288v-32h-16v32h-32v-32h-16v32h-32v-32h-16v32h-32v-32h-16v32H96
				v-32H80v32H48V171.312L356.688,480z M480,416H315.312L32,132.688V416H16V80h464V416z M480,64H16V16h464V64z"/>
			<rect x="32" y="32" width="16" height="16"/>
			<rect x="64" y="32" width="16" height="16"/>
			<rect x="96" y="32" width="16" height="16"/>
			<path d="M96,292.688V432h139.312L96,292.688z M112,331.312L196.688,416H112V331.312z"/>
			<path d="M250.32,328h171.36l-22.504-40H464V96H208v192h64.824L250.32,328z M277.68,312l13.496-24h89.64l13.504,24H277.68z
				 M336,175.68l-30.16,53.608C294.976,220.488,288,207.048,288,192c0-26.472,21.528-48,48-48s48,21.528,48,48
				c0,15.048-6.976,28.488-17.84,37.296L336,175.68z M352.208,237.128C347.136,238.952,341.696,240,336,240
				c-5.696,0-11.136-1.048-16.208-2.872L336,208.32L352.208,237.128z M311.864,251.232C319.312,254.288,327.456,256,336,256
				s16.688-1.712,24.144-4.768L371.824,272h-71.64L311.864,251.232z M224,272V112h224v160h-57.824l-16.128-28.664
				C389.76,231.664,400,213.024,400,192c0-35.288-28.712-64-64-64c-35.288,0-64,28.712-64,64c0,21.024,10.24,39.664,25.944,51.336
				L281.824,272H224z"/>
		</g>
	</g>
</g>
<g>
</g>
<g>
</g>
<g>
</g>
<g>
</g>
<g>
</g>
<g>
</g>
<g>
</g>
<g>
</g>
<g>
</g>
<g>
</g>
<g>
</g>
<g>
</g>
<g>
</g>
<g>
</g>
<g>
</g>
</svg>
