<?xml version="1.0" encoding="iso-8859-1"?>
<!-- Generator: Adobe Illustrator 19.0.0, SVG Export Plug-In . SVG Version: 6.00 Build 0)  -->
<svg version="1.1" id="Layer_1" xmlns="http://www.w3.org/2000/svg" xmlns:xlink="http://www.w3.org/1999/xlink" x="0px" y="0px"
	 viewBox="0 0 496 496" style="enable-background:new 0 0 496 496;" xml:space="preserve">
<g>
	<g>
		<g>
			<path d="M0,0v400h136v-16H16V80h464v304H360v16h136V0H0z M480,64H16V16h464V64z"/>
			<rect x="32" y="32" width="16" height="16"/>
			<rect x="64" y="32" width="16" height="16"/>
			<rect x="96" y="32" width="16" height="16"/>
			<path d="M328,381.968c35.152-25.608,56-66.392,56-109.968c0-74.992-61.008-136-136-136s-136,61.008-136,136
				c0,43.576,20.848,84.36,56,109.968V384h-16v16h16v16h-16v16h16v16h-16v16h16v32h160v-32h16v-16h-16v-16h16v-16h-16v-16h16v-16
				h-16V381.968z M312,480H184v-16h128V480z M312,448H184v-16h128V448z M312,416H184v-16h128V416z M315.496,371.208L312,373.592V384
				h-56v-64.72c22.664-3.824,40-23.536,40-47.28c0-26.472-21.528-48-48-48s-48,21.528-48,48c0,23.736,17.336,43.448,40,47.28V384
				h-56v-10.408l-3.496-2.384C147.624,348.792,128,311.704,128,272c0-66.168,53.832-120,120-120s120,53.832,120,120
				C368,311.704,348.376,348.792,315.496,371.208z M248,304c-17.648,0-32-14.352-32-32s14.352-32,32-32s32,14.352,32,32
				S265.648,304,248,304z"/>
			<rect x="312" y="264" width="16" height="16"/>
			<rect x="168" y="264" width="16" height="16"/>
			<rect x="240" y="96" width="16" height="24"/>
			<rect x="157.999" y="117.975" transform="matrix(0.8661 -0.4999 0.4999 0.8661 -42.7444 100.3875)" width="16" height="24"/>
			<rect x="93.972" y="182" transform="matrix(0.8661 0.4999 -0.4999 0.8661 109.1707 -27.5314)" width="24" height="16"/>
			<rect x="72" y="264" width="24" height="16"/>
			<rect x="97.967" y="342.011" transform="matrix(0.4999 0.8661 -0.8661 0.4999 359.5999 85.2665)" width="16" height="24"/>
			<rect x="378.028" y="345.987" transform="matrix(-0.8661 -0.4999 0.4999 -0.8661 550.8715 855.5435)" width="24" height="16"/>
			<rect x="400" y="264" width="24" height="16"/>
			<rect x="382.008" y="178.047" transform="matrix(-0.4999 -0.8661 0.8661 -0.4999 420.3726 622.832)" width="16" height="24"/>
			<rect x="318.001" y="121.956" transform="matrix(0.5 -0.866 0.866 0.5 52.4524 350.7634)" width="24" height="16"/>
		</g>
	</g>
</g>
<g>
</g>
<g>
</g>
<g>
</g>
<g>
</g>
<g>
</g>
<g>
</g>
<g>
</g>
<g>
</g>
<g>
</g>
<g>
</g>
<g>
</g>
<g>
</g>
<g>
</g>
<g>
</g>
<g>
</g>
</svg>
