<?xml version="1.0" encoding="iso-8859-1"?>
<!-- Generator: Adobe Illustrator 19.0.0, SVG Export Plug-In . SVG Version: 6.00 Build 0)  -->
<svg version="1.1" id="Layer_1" xmlns="http://www.w3.org/2000/svg" xmlns:xlink="http://www.w3.org/1999/xlink" x="0px" y="0px"
	 viewBox="0 0 496 496" style="enable-background:new 0 0 496 496;" xml:space="preserve">
<g>
	<g>
		<g>
			<path d="M0,0v496h496V0H0z M480,480H16V80h464V480z M480,64H16V16h464V64z"/>
			<rect x="32" y="32" width="16" height="16"/>
			<rect x="64" y="32" width="16" height="16"/>
			<rect x="96" y="32" width="16" height="16"/>
			<path d="M101.52,319.752c3.384,12.472,8.344,24.424,14.824,35.696c-13.864,15.688-13.448,39.664,1.552,54.664
				c7.8,7.8,18.04,11.696,28.28,11.696c9.472,0,18.848-3.48,26.384-10.144c11.288,6.48,23.232,11.448,35.696,14.816
				C209.56,447.36,226.792,464,248,464s38.44-16.64,39.752-37.52c12.456-3.376,24.408-8.336,35.696-14.816
				c7.536,6.656,16.912,10.144,26.376,10.144c10.248,0,20.488-3.896,28.288-11.696c15.008-15,15.416-38.976,1.552-54.664
				c6.48-11.272,11.44-23.224,14.824-35.696C415.36,318.44,432,301.208,432,280s-16.64-38.44-37.52-39.752
				c-3.384-12.472-8.344-24.424-14.824-35.696c13.864-15.688,13.448-39.664-1.552-54.664s-38.976-15.416-54.664-1.552
				c-11.288-6.48-23.232-11.448-35.696-14.816C286.44,112.64,269.208,96,248,96s-38.44,16.64-39.752,37.52
				c-12.456,3.376-24.408,8.336-35.696,14.816c-15.688-13.864-39.664-13.448-54.664,1.552c-15.008,15-15.416,38.976-1.552,54.664
				c-6.48,11.272-11.44,23.224-14.824,35.696C80.64,241.56,64,258.792,64,280S80.64,318.44,101.52,319.752z M163.152,398.8
				c-9.36,9.352-24.584,9.36-33.944,0s-9.36-24.584,0-33.944c4.536-4.528,10.56-7.032,16.968-7.032
				c6.416,0,12.44,2.504,16.976,7.032C172.504,374.216,172.504,389.44,163.152,398.8z M248,448c-13.232,0-24-10.768-24-24
				s10.768-24,24-24s24,10.768,24,24S261.232,448,248,448z M366.792,398.8c-9.36,9.352-24.584,9.36-33.944,0
				c-9.36-9.36-9.352-24.584,0-33.944c9.064-9.064,24.864-9.064,33.944,0C376.152,374.208,376.152,389.44,366.792,398.8z M392,256
				c13.232,0,24,10.768,24,24s-10.768,24-24,24s-24-10.768-24-24S378.768,256,392,256z M332.848,161.2
				c4.68-4.68,10.824-7.016,16.976-7.016c6.144,0,12.288,2.336,16.968,7.016c9.36,9.36,9.36,24.584,0,33.944
				c-9.072,9.064-24.872,9.064-33.944,0C323.496,185.784,323.496,170.56,332.848,161.2z M248,112c13.232,0,24,10.768,24,24
				s-10.768,24-24,24s-24-10.768-24-24S234.768,112,248,112z M129.208,161.2c4.68-4.68,10.824-7.016,16.976-7.016
				c6.144,0,12.288,2.336,16.968,7.016c9.352,9.36,9.352,24.584,0,33.944c-9.064,9.064-24.864,9.064-33.944,0
				C119.848,185.792,119.848,170.56,129.208,161.2z M129.2,214.272c5.256,2.48,10.984,3.912,16.976,3.912
				c10.688,0,20.728-4.168,28.288-11.72c12.224-12.224,14.72-30.416,7.776-45.24c9-5,18.448-8.928,28.264-11.744
				C216.064,164.888,230.696,176,248,176s31.936-11.112,37.496-26.52c9.816,2.816,19.264,6.744,28.264,11.744
				c-6.944,14.824-4.448,33.016,7.776,45.24c7.552,7.552,17.6,11.72,28.288,11.72c5.984,0,11.712-1.432,16.976-3.912
				c4.984,8.976,8.912,18.424,11.728,28.232C363.112,248.064,352,262.696,352,280c0,17.304,11.112,31.936,26.528,37.496
				c-2.816,9.816-6.744,19.256-11.728,28.232c-5.256-2.48-10.984-3.912-16.976-3.912c-10.688,0-20.728,4.168-28.288,11.72
				c-12.224,12.224-14.72,30.416-7.776,45.24c-9,5-18.448,8.928-28.264,11.744C279.936,395.112,265.304,384,248,384
				s-31.936,11.112-37.496,26.52c-9.816-2.816-19.264-6.744-28.264-11.744c6.944-14.824,4.448-33.016-7.776-45.24
				c-7.552-7.552-17.6-11.72-28.288-11.72c-5.984,0-11.712,1.432-16.976,3.912c-4.984-8.976-8.912-18.424-11.728-28.232
				C132.888,311.936,144,297.304,144,280c0-17.304-11.112-31.936-26.528-37.496C120.288,232.688,124.216,223.248,129.2,214.272z
				 M104,256c13.232,0,24,10.768,24,24s-10.768,24-24,24s-24-10.768-24-24S90.768,256,104,256z"/>
			<path d="M176,352h144v-88h30.808L248,181.76L145.192,264H176V352z M240,336h-16v-40h16V336z M272,336h-16v-40h16V336z M304,336
				h-16v-56h-80v56h-16v-72h112V336z M248,202.24L305.192,248H190.808L248,202.24z"/>
		</g>
	</g>
</g>
<g>
</g>
<g>
</g>
<g>
</g>
<g>
</g>
<g>
</g>
<g>
</g>
<g>
</g>
<g>
</g>
<g>
</g>
<g>
</g>
<g>
</g>
<g>
</g>
<g>
</g>
<g>
</g>
<g>
</g>
</svg>
