<?xml version="1.0" encoding="iso-8859-1"?>
<!-- Generator: Adobe Illustrator 19.0.0, SVG Export Plug-In . SVG Version: 6.00 Build 0)  -->
<svg version="1.1" id="Layer_1" xmlns="http://www.w3.org/2000/svg" xmlns:xlink="http://www.w3.org/1999/xlink" x="0px" y="0px"
	 viewBox="0 0 496 496" style="enable-background:new 0 0 496 496;" xml:space="preserve">
<g>
	<g>
		<g>
			<path d="M0,0v496h496V0H0z M480,480H16V80h464V480z M480,64H16V16h464V64z"/>
			<rect x="32" y="32" width="16" height="16"/>
			<rect x="64" y="32" width="16" height="16"/>
			<rect x="96" y="32" width="16" height="16"/>
			<path d="M464,208H323.2c3.072-8.608,4.8-17.68,4.8-26.856V176c0-44.112-35.888-80-80-80s-80,35.888-80,80v5.144
				c0,9.184,1.728,18.248,4.8,26.856H32v256h432V208z M184,176c0-35.288,28.712-64,64-64c35.288,0,64,28.712,64,64v5.144
				c0,10.968-2.84,21.824-8.216,31.376L248,311.68l-55.784-99.168c-5.376-9.552-8.216-20.4-8.216-31.368V176z M128,224h52.32l45,80
				H128V224z M64,448H48V224h16V448z M280,448H128v-80h152V448z M448,448H344v-80h104V448z M448,352H328v96h-32v-96H112v96H80V224
				h32v96h122.32L248,344.32L261.68,320H448V352z M448,304H270.68l45-80H448V304z"/>
			<path d="M248,224c26.472,0,48-21.528,48-48s-21.528-48-48-48s-48,21.528-48,48S221.528,224,248,224z M248,144
				c17.648,0,32,14.352,32,32s-14.352,32-32,32s-32-14.352-32-32S230.352,144,248,144z"/>
		</g>
	</g>
</g>
<g>
</g>
<g>
</g>
<g>
</g>
<g>
</g>
<g>
</g>
<g>
</g>
<g>
</g>
<g>
</g>
<g>
</g>
<g>
</g>
<g>
</g>
<g>
</g>
<g>
</g>
<g>
</g>
<g>
</g>
</svg>
