<?xml version="1.0" encoding="iso-8859-1"?>
<!-- Generator: Adobe Illustrator 19.0.0, SVG Export Plug-In . SVG Version: 6.00 Build 0)  -->
<svg version="1.1" id="Layer_1" xmlns="http://www.w3.org/2000/svg" xmlns:xlink="http://www.w3.org/1999/xlink" x="0px" y="0px"
	 viewBox="0 0 496 496" style="enable-background:new 0 0 496 496;" xml:space="preserve">
<g>
	<g>
		<g>
			<path d="M496,384V0H0v384h216v64h-24c-22.056,0-40,17.944-40,40v8h192v-8c0-22.056-17.944-40-40-40h-24v-64H496z M16,16h464v48
				H16V16z M16,368V80h464v288H280v-37.088c28.944-9.392,52.368-31.112,64-58.976V272c57.344,0,104-46.656,104-104v-56h-96V96H144
				v16H48v56c0,57.344,46.656,104,104,104v-0.064c11.632,27.864,35.056,49.584,64,58.976V368H16z M349.16,255.736
				c1.792-7.632,2.84-15.56,2.84-23.736V128h80v40C432,214.784,395.28,253.04,349.16,255.736z M146.84,255.736
				C100.72,253.04,64,214.784,64,168v-40h80v104C144,240.176,145.048,248.104,146.84,255.736z M304,464
				c10.432,0,19.328,6.688,22.632,16H169.368c3.304-9.312,12.2-16,22.632-16H304z M232,448V334.64c5.232,0.816,10.544,1.36,16,1.36
				s10.768-0.552,16-1.36V448H232z M248,320c-48.52,0-88-39.48-88-88V112h176v120C336,280.52,296.52,320,248,320z"/>
			<rect x="32" y="32" width="16" height="16"/>
			<rect x="64" y="32" width="16" height="16"/>
			<rect x="96" y="32" width="16" height="16"/>
			<path d="M248,128c-39.704,0-72,32.296-72,72s32.296,72,72,72s72-32.296,72-72S287.704,128,248,128z M248,256
				c-30.872,0-56-25.128-56-56s25.128-56,56-56s56,25.128,56,56S278.872,256,248,256z"/>
			<rect x="240" y="192" width="16" height="16"/>
			<rect x="272" y="192" width="16" height="16"/>
			<rect x="208" y="192" width="16" height="16"/>
		</g>
	</g>
</g>
<g>
</g>
<g>
</g>
<g>
</g>
<g>
</g>
<g>
</g>
<g>
</g>
<g>
</g>
<g>
</g>
<g>
</g>
<g>
</g>
<g>
</g>
<g>
</g>
<g>
</g>
<g>
</g>
<g>
</g>
</svg>
