<?xml version="1.0" encoding="iso-8859-1"?>
<!-- Generator: Adobe Illustrator 19.0.0, SVG Export Plug-In . SVG Version: 6.00 Build 0)  -->
<svg version="1.1" id="Layer_1" xmlns="http://www.w3.org/2000/svg" xmlns:xlink="http://www.w3.org/1999/xlink" x="0px" y="0px"
	 viewBox="0 0 496 496" style="enable-background:new 0 0 496 496;" xml:space="preserve">
<g>
	<g>
		<g>
			<path d="M0,0v496h496V0H0z M480,480H16V80h464V480z M480,64H16V16h464V64z"/>
			<rect x="32" y="32" width="16" height="16"/>
			<rect x="64" y="32" width="16" height="16"/>
			<rect x="96" y="32" width="16" height="16"/>
			<path d="M248,240c39.704,0,72-32.304,72-72s-32.296-72-72-72c-39.704,0-72,32.304-72,72S208.296,240,248,240z M272,218.52
				c-7.288,3.472-15.408,5.48-24,5.48c-8.592,0-16.712-2.008-24-5.48V216c0-13.232,10.768-24,24-24s24,10.768,24,24V218.52z
				 M232,160c0-8.824,7.176-16,16-16c8.824,0,16,7.176,16,16c0,8.824-7.176,16-16,16C239.176,176,232,168.824,232,160z M248,112
				c30.872,0,56,25.12,56,56c0,15.632-6.456,29.768-16.816,39.936c-2.136-10.4-8.328-19.344-16.832-25.096
				C276.288,177.024,280,168.952,280,160c0-17.648-14.352-32-32-32s-32,14.352-32,32c0,8.952,3.712,17.024,9.656,22.84
				c-8.512,5.752-14.696,14.696-16.832,25.096C198.456,197.768,192,183.632,192,168C192,137.12,217.128,112,248,112z"/>
			<path d="M96,232c35.288,0,64-28.712,64-64c0-35.288-28.712-64-64-64c-35.288,0-64,28.712-64,64C32,203.288,60.712,232,96,232z
				 M112,213.2c-5.016,1.776-10.384,2.8-16,2.8c-5.616,0-10.984-1.024-16-2.8V200c0-8.824,7.176-16,16-16s16,7.176,16,16V213.2z
				 M88,160c0-4.408,3.584-8,8-8s8,3.592,8,8s-3.584,8-8,8S88,164.408,88,160z M96,120c26.472,0,48,21.528,48,48
				c0,14.168-6.208,26.88-16,35.68V200c0-10.488-5.136-19.72-12.952-25.56c3.064-4.032,4.952-9,4.952-14.44
				c0-13.232-10.768-24-24-24s-24,10.768-24,24c0,5.44,1.888,10.408,4.952,14.44C69.136,180.28,64,189.512,64,200v3.68
				c-9.792-8.8-16-21.512-16-35.68C48,141.528,69.528,120,96,120z"/>
			<path d="M400,232c35.288,0,64-28.712,64-64c0-35.288-28.712-64-64-64c-35.288,0-64,28.712-64,64C336,203.288,364.712,232,400,232
				z M416,213.2c-5.016,1.776-10.384,2.8-16,2.8c-5.616,0-10.984-1.024-16-2.8V200c0-8.824,7.176-16,16-16c8.824,0,16,7.176,16,16
				V213.2z M392,160c0-4.408,3.584-8,8-8c4.416,0,8,3.592,8,8s-3.584,8-8,8C395.584,168,392,164.408,392,160z M400,120
				c26.472,0,48,21.528,48,48c0,14.168-6.208,26.88-16,35.68V200c0-10.488-5.136-19.72-12.952-25.56
				c3.064-4.032,4.952-9,4.952-14.44c0-13.232-10.768-24-24-24s-24,10.768-24,24c0,5.44,1.888,10.408,4.952,14.44
				C373.136,180.28,368,189.512,368,200v3.68c-9.792-8.792-16-21.504-16-35.68C352,141.528,373.528,120,400,120z"/>
			<rect x="32" y="256" width="432" height="16"/>
			<rect x="256" y="288" width="208" height="16"/>
			<rect x="256" y="320" width="208" height="16"/>
			<rect x="256" y="352" width="208" height="16"/>
			<rect x="256" y="384" width="208" height="16"/>
			<rect x="256" y="416" width="208" height="16"/>
			<rect x="256" y="448" width="208" height="16"/>
			<path d="M240,288H32v176h208V288z M224,448H48V304h176V448z"/>
		</g>
	</g>
</g>
<g>
</g>
<g>
</g>
<g>
</g>
<g>
</g>
<g>
</g>
<g>
</g>
<g>
</g>
<g>
</g>
<g>
</g>
<g>
</g>
<g>
</g>
<g>
</g>
<g>
</g>
<g>
</g>
<g>
</g>
</svg>
