<?xml version="1.0" encoding="iso-8859-1"?>
<!-- Generator: Adobe Illustrator 19.0.0, SVG Export Plug-In . SVG Version: 6.00 Build 0)  -->
<svg version="1.1" id="Layer_1" xmlns="http://www.w3.org/2000/svg" xmlns:xlink="http://www.w3.org/1999/xlink" x="0px" y="0px"
	 viewBox="0 0 496 496" style="enable-background:new 0 0 496 496;" xml:space="preserve">
<g>
	<g>
		<g>
			<path d="M0,0v496h496V0H0z M480,480H16V80h464V480z M480,64H16V16h464V64z"/>
			<rect x="32" y="32" width="16" height="16"/>
			<rect x="64" y="32" width="16" height="16"/>
			<rect x="96" y="32" width="16" height="16"/>
			<path d="M80,128h96.616c-50.096,23.608-86.584,71.28-94.728,128H64v48h17.904C93.672,386.56,163.72,448,248,448
				s154.328-61.44,166.096-144H432v-48h-17.888c-8.152-56.72-44.64-104.392-94.728-128H416v16h48V96h-48v16H272V96h-48v16H80V96H32
				v48h48V128z M432,112h16v16h-16V112z M96,288H80v-16h16V288z M400,272h16v16h-16V272z M240,112h16v16h-16V112z M272,144v-13.952
				c64.6,10.28,115.68,61.36,125.96,125.952H384v48h13.936C386.344,377.536,323.48,432,248,432S109.656,377.536,98.064,304H112v-48
				H98.04C108.32,191.408,159.4,140.328,224,130.048V144H272z M64,128H48v-16h16V128z"/>
			<path d="M176.472,272H160v16h16.472c3.704,33.312,30.216,59.824,63.528,63.528V368h16v-16.472
				c33.312-3.704,59.824-30.216,63.528-63.528H336v-16h-16.472c-3.704-33.312-30.216-59.824-63.528-63.528V192h-16v16.472
				C206.688,212.176,180.176,238.688,176.472,272z M240,224.64V240h16v-15.36c24.472,3.528,43.84,22.888,47.36,47.36H288v16h15.36
				c-3.52,24.472-22.888,43.84-47.36,47.36V320h-16v15.36c-24.472-3.528-43.84-22.888-47.36-47.36H208v-16h-15.36
				C196.168,247.528,215.528,228.16,240,224.64z"/>
			<path d="M248,304c13.232,0,24-10.768,24-24s-10.768-24-24-24s-24,10.768-24,24S234.768,304,248,304z M248,272
				c4.408,0,8,3.592,8,8c0,4.408-3.592,8-8,8s-8-3.592-8-8C240,275.592,243.592,272,248,272z"/>
			<rect x="352" y="272" width="16" height="16"/>
			<rect x="240" y="160" width="16" height="16"/>
			<rect x="128" y="272" width="16" height="16"/>
			<rect x="240" y="384" width="16" height="16"/>
		</g>
	</g>
</g>
<g>
</g>
<g>
</g>
<g>
</g>
<g>
</g>
<g>
</g>
<g>
</g>
<g>
</g>
<g>
</g>
<g>
</g>
<g>
</g>
<g>
</g>
<g>
</g>
<g>
</g>
<g>
</g>
<g>
</g>
</svg>
