<?xml version="1.0" encoding="iso-8859-1"?>
<!-- Generator: Adobe Illustrator 19.0.0, SVG Export Plug-In . SVG Version: 6.00 Build 0)  -->
<svg version="1.1" id="Layer_1" xmlns="http://www.w3.org/2000/svg" xmlns:xlink="http://www.w3.org/1999/xlink" x="0px" y="0px"
	 viewBox="0 0 496 496" style="enable-background:new 0 0 496 496;" xml:space="preserve">
<g>
	<g>
		<g>
			<path d="M0,0v496h496V0H0z M480,480H16V80h464V480z M480,64H16V16h464V64z"/>
			<rect x="32" y="32" width="16" height="16"/>
			<rect x="64" y="32" width="16" height="16"/>
			<rect x="96" y="32" width="16" height="16"/>
			<path d="M432,96H64v368h368V96z M256,112h148.688l-55.184,55.184c-25.08-22.592-57.632-36.896-93.504-38.776V112z M319.528,288
				c-1.544,13.864-7.04,26.528-15.328,36.888L267.312,288H319.528z M267.312,272l36.888-36.888
				c8.288,10.36,13.784,23.024,15.328,36.888H267.312z M335.592,288h48c-1.84,31.464-14.376,60.04-34.088,82.2l-33.92-33.928
				C326.712,322.936,333.936,306.264,335.592,288z M335.592,272c-1.656-18.264-8.888-34.928-20.008-48.272l33.928-33.928
				c19.712,22.16,32.24,50.728,34.088,82.2H335.592z M256,144.408c31.464,1.84,60.04,14.376,82.2,34.088l-33.928,33.92
				c-13.336-11.128-30.008-18.352-48.272-20.008V144.408z M256,208.472c13.864,1.544,26.528,7.04,36.888,15.328L256,260.688V208.472
				z M256,299.312l36.888,36.888c-10.36,8.288-23.024,13.784-36.888,15.328V299.312z M256,367.592
				c18.264-1.656,34.928-8.888,48.272-20.008l33.928,33.928c-22.16,19.712-50.728,32.24-82.2,34.088V367.592z M80,123.312
				l55.184,55.184c-22.592,25.08-36.896,57.632-38.776,93.504H80V123.312z M176.472,288h52.216L191.8,324.888
				C183.512,314.528,178.016,301.864,176.472,288z M180.416,336.272L146.488,370.2c-19.712-22.16-32.24-50.728-34.088-82.2h48.008
				C162.064,306.264,169.296,322.928,180.416,336.272z M176.472,272c1.544-13.864,7.04-26.528,15.328-36.888L228.688,272H176.472z
				 M160.408,272h-48c1.84-31.464,14.376-60.04,34.088-82.2l33.92,33.928C169.288,237.064,162.064,253.736,160.408,272z M80,288
				h16.408c1.88,35.872,16.192,68.424,38.776,93.504L80,436.688V288z M240,448H91.312l55.184-55.184
				c25.08,22.592,57.632,36.896,93.504,38.776V448z M240,415.592c-31.464-1.84-60.04-14.376-82.2-34.088l33.928-33.92
				c13.336,11.128,30.008,18.352,48.272,20.008V415.592z M240,351.528c-13.864-1.544-26.528-7.04-36.888-15.328L240,299.312V351.528
				z M240,260.688L203.112,223.8c10.36-8.288,23.024-13.784,36.888-15.328V260.688z M240,192.408
				c-18.264,1.656-34.928,8.888-48.272,20.008L157.8,178.488c22.16-19.712,50.728-32.24,82.2-34.088V192.408z M240,128.408
				c-35.872,1.88-68.424,16.192-93.504,38.776L91.312,112H240V128.408z M256,448v-16.408c35.872-1.88,68.424-16.192,93.504-38.776
				L404.688,448H256z M416,436.688l-55.184-55.184c22.592-25.08,36.896-57.632,38.776-93.504H416V436.688z M416,272h-16.408
				c-1.88-35.872-16.192-68.424-38.776-93.504L416,123.312V272z"/>
		</g>
	</g>
</g>
<g>
</g>
<g>
</g>
<g>
</g>
<g>
</g>
<g>
</g>
<g>
</g>
<g>
</g>
<g>
</g>
<g>
</g>
<g>
</g>
<g>
</g>
<g>
</g>
<g>
</g>
<g>
</g>
<g>
</g>
</svg>
