<?xml version="1.0" encoding="iso-8859-1"?>
<!-- Generator: Adobe Illustrator 19.0.0, SVG Export Plug-In . SVG Version: 6.00 Build 0)  -->
<svg version="1.1" id="Layer_1" xmlns="http://www.w3.org/2000/svg" xmlns:xlink="http://www.w3.org/1999/xlink" x="0px" y="0px"
	 viewBox="0 0 496 496" style="enable-background:new 0 0 496 496;" xml:space="preserve">
<g>
	<g>
		<g>
			<path d="M464,64V0h-96v64h-19.88L304,2.232L259.88,64H0v384h256c0,26.472,21.528,48,48,48s48-21.528,48-48h16v48h96v-48h32V64
				H464z M256,272H144.648l51.192-64H236l20,26.664V272z M256,208l-12-16h-55.84l-64.008,80H64v16h192v16H48V176h208V208z M256,160
				H32v160h224v112H16V144h240V160z M256,128H16V80h240V128z M304,29.768L328.456,64h-48.912L304,29.768z M272,80h24v304h-24V80z
				 M336,448c0,17.648-14.352,32-32,32s-32-14.352-32-32v-16h64V448z M336,416h-64v-16h64V416z M336,384h-24V80h24V384z M368,432
				h-16V320h16V432z M368,304h-16v-16h16V304z M368,272h-16v-96h16V272z M368,160h-16v-16h16V160z M368,128h-16V80h16V128z M448,48
				h-32v16h32v32h-32v16h32v32h-32v16h32v32h-32v16h32v32h-32v16h32v32h-32v16h32v32h-32v16h32v32h-32v16h32v32h-32v16h32v32h-64V16
				h64V48z M480,432h-16V80h16V432z"/>
			<rect x="32" y="96" width="16" height="16"/>
			<rect x="64" y="96" width="16" height="16"/>
			<rect x="96" y="96" width="16" height="16"/>
			<path d="M144,336H32v80h112V336z M128,400H48v-48h80V400z"/>
			<rect x="160" y="336" width="80" height="16"/>
			<rect x="160" y="368" width="80" height="16"/>
			<rect x="160" y="400" width="80" height="16"/>
		</g>
	</g>
</g>
<g>
</g>
<g>
</g>
<g>
</g>
<g>
</g>
<g>
</g>
<g>
</g>
<g>
</g>
<g>
</g>
<g>
</g>
<g>
</g>
<g>
</g>
<g>
</g>
<g>
</g>
<g>
</g>
<g>
</g>
</svg>
