<?xml version="1.0" encoding="iso-8859-1"?>
<!-- Generator: Adobe Illustrator 19.0.0, SVG Export Plug-In . SVG Version: 6.00 Build 0)  -->
<svg version="1.1" id="Layer_1" xmlns="http://www.w3.org/2000/svg" xmlns:xlink="http://www.w3.org/1999/xlink" x="0px" y="0px"
	 viewBox="0 0 496 496" style="enable-background:new 0 0 496 496;" xml:space="preserve">
<g>
	<g>
		<g>
			<path d="M0,0v432h243.064c2.416,6.544,6.192,12.568,11.272,17.656c6.144,6.144,9.664,14.64,9.664,23.312V496h16v-23.032
				c0-13.072-5.096-25.368-14.344-34.624C259.52,432.2,256,423.704,256,415.032v-76.608c0-8.856,4.4-17.072,11.768-21.984
				c4.36-2.904,9.416-4.44,14.656-4.44H288v48h16V172c0-6.616,5.384-12,12-12c6.616,0,12,5.384,12,12v156h16v-20
				c0-6.616,5.384-12,12-12c6.616,0,12,5.384,12,12v20h16v-20c0-6.616,5.384-12,12-12c6.616,0,12,5.384,12,12v20h16v-4
				c0-6.616,5.384-12,12-12c6.616,0,12,5.384,12,12v84.112c0,4.216-0.792,8.336-2.36,12.24l-10.144,25.344
				c-2.32,5.808-3.496,11.928-3.496,18.192V496h16v-32.112c0-4.216,0.792-8.336,2.36-12.24L458.216,432H496V0H0z M316,144
				c-15.44,0-28,12.56-28,28v4h-16v-48h88v48h-16v-4C344,156.56,331.44,144,316,144z M480,416h-16.752
				c0.424-2.6,0.752-5.224,0.752-7.888V324c0-15.44-12.56-28-28-28c-4.832,0-9.384,1.232-13.352,3.392
				C419.008,288.152,408.44,280,396,280c-7.832,0-14.912,3.224-20,8.424c-5.088-5.2-12.168-8.424-20-8.424
				c-4.288,0-8.36,0.976-12,2.704V256h120v-16H344v-48h32v-32h88v-16h-88v-32H256v32H32v16h224v32h32v48h-80v-32H88v32H32v16h56v32
				h120v-32h80v40h-5.576c-8.4,0-16.536,2.464-23.528,7.128c-11.152,7.432-17.984,19.592-18.744,32.872H208v-32H88v32H32v16h56v32
				h120v-32h32v63.032c0,0.328,0.04,0.648,0.048,0.968H16V80h464V416z M192,224v48h-88v-48H192z M192,320v48h-88v-48H192z M480,64
				H16V16h464V64z"/>
			<rect x="32" y="32" width="16" height="16"/>
			<rect x="64" y="32" width="16" height="16"/>
			<rect x="96" y="32" width="16" height="16"/>
		</g>
	</g>
</g>
<g>
</g>
<g>
</g>
<g>
</g>
<g>
</g>
<g>
</g>
<g>
</g>
<g>
</g>
<g>
</g>
<g>
</g>
<g>
</g>
<g>
</g>
<g>
</g>
<g>
</g>
<g>
</g>
<g>
</g>
</svg>
