<?xml version="1.0" encoding="iso-8859-1"?>
<!-- Generator: Adobe Illustrator 19.0.0, SVG Export Plug-In . SVG Version: 6.00 Build 0)  -->
<svg version="1.1" id="Layer_1" xmlns="http://www.w3.org/2000/svg" xmlns:xlink="http://www.w3.org/1999/xlink" x="0px" y="0px"
	 viewBox="0 0 496 496" style="enable-background:new 0 0 496 496;" xml:space="preserve">
<g>
	<g>
		<g>
			<path d="M0,0v496h496V0H0z M480,480H16V80h464V480z M480,64H16V16h464V64z"/>
			<rect x="32" y="32" width="16" height="16"/>
			<rect x="64" y="32" width="16" height="16"/>
			<rect x="96" y="32" width="16" height="16"/>
			<path d="M464,136H32v288h432V136z M448,408H48V152h400V408z"/>
			<path d="M432,184H224v80h208V184z M416,248H240v-48h176V248z"/>
			<rect x="384" y="216" width="16" height="16"/>
			<rect x="352" y="216" width="16" height="16"/>
			<rect x="320" y="216" width="16" height="16"/>
			<rect x="288" y="216" width="16" height="16"/>
			<rect x="256" y="216" width="16" height="16"/>
			<path d="M432,296H224v80h208V296z M416,360H240v-48h176V360z"/>
			<rect x="384" y="328" width="16" height="16"/>
			<rect x="352" y="328" width="16" height="16"/>
			<rect x="320" y="328" width="16" height="16"/>
			<rect x="288" y="328" width="16" height="16"/>
			<rect x="256" y="328" width="16" height="16"/>
			<path d="M208,264h-16v-40c0-30.88-25.128-56-56-56s-56,25.12-56,56v40H64v128h144V264z M96,224c0-22.056,17.944-40,40-40
				c22.056,0,40,17.944,40,40v40h-16v-40c0-13.232-10.768-24-24-24s-24,10.768-24,24v40H96V224z M144,224v40h-16v-40
				c0-4.408,3.584-8,8-8S144,219.592,144,224z M192,376H80v-96h112V376z"/>
			<path d="M128,342.528V360h16v-17.472c9.288-3.312,16-12.112,16-22.528c0-13.232-10.768-24-24-24s-24,10.768-24,24
				C112,330.416,118.712,339.216,128,342.528z M136,312c4.416,0,8,3.584,8,8c0,4.416-3.584,8-8,8s-8-3.584-8-8
				C128,315.584,131.584,312,136,312z"/>
		</g>
	</g>
</g>
<g>
</g>
<g>
</g>
<g>
</g>
<g>
</g>
<g>
</g>
<g>
</g>
<g>
</g>
<g>
</g>
<g>
</g>
<g>
</g>
<g>
</g>
<g>
</g>
<g>
</g>
<g>
</g>
<g>
</g>
</svg>
