<?xml version="1.0" encoding="iso-8859-1"?>
<!-- Generator: Adobe Illustrator 19.0.0, SVG Export Plug-In . SVG Version: 6.00 Build 0)  -->
<svg version="1.1" id="Layer_1" xmlns="http://www.w3.org/2000/svg" xmlns:xlink="http://www.w3.org/1999/xlink" x="0px" y="0px"
	 viewBox="0 0 496 496" style="enable-background:new 0 0 496 496;" xml:space="preserve">
<g>
	<g>
		<g>
			<path d="M0,0v496h496V0H0z M480,480H16V80h464V480z M480,64H16V16h464V64z"/>
			<rect x="32" y="32" width="16" height="16"/>
			<rect x="64" y="32" width="16" height="16"/>
			<rect x="96" y="32" width="16" height="16"/>
			<path d="M464,96H32v272h432V96z M448,352H48V112h400V352z"/>
			<path d="M248,336c57.344,0,104-46.656,104-104s-46.656-104-104-104s-104,46.656-104,104S190.656,336,248,336z M248,144
				c48.52,0,88,39.48,88,88s-39.48,88-88,88s-88-39.48-88-88C160,183.48,199.48,144,248,144z"/>
			<path d="M200,171.504v121L331.096,232L200,171.504z M216,196.504L292.904,232L216,267.504V196.504z"/>
			<rect x="32" y="384" width="208" height="16"/>
			<rect x="256" y="384" width="208" height="16"/>
			<rect x="32" y="416" width="208" height="16"/>
			<rect x="256" y="416" width="208" height="16"/>
			<rect x="32" y="448" width="208" height="16"/>
			<rect x="256" y="448" width="208" height="16"/>
			<rect x="368" y="224" width="16" height="16"/>
			<rect x="400" y="224" width="16" height="16"/>
			<rect x="112" y="224" width="16" height="16"/>
			<rect x="80" y="224" width="16" height="16"/>
		</g>
	</g>
</g>
<g>
</g>
<g>
</g>
<g>
</g>
<g>
</g>
<g>
</g>
<g>
</g>
<g>
</g>
<g>
</g>
<g>
</g>
<g>
</g>
<g>
</g>
<g>
</g>
<g>
</g>
<g>
</g>
<g>
</g>
</svg>
