<?xml version="1.0" encoding="iso-8859-1"?>
<!-- Generator: Adobe Illustrator 19.0.0, SVG Export Plug-In . SVG Version: 6.00 Build 0)  -->
<svg version="1.1" id="Layer_1" xmlns="http://www.w3.org/2000/svg" xmlns:xlink="http://www.w3.org/1999/xlink" x="0px" y="0px"
	 viewBox="0 0 496 496" style="enable-background:new 0 0 496 496;" xml:space="preserve">
<g>
	<g>
		<g>
			<path d="M0,0v416h232.752c-0.448,3.216-0.752,6.472-0.752,9.776C232,464.504,263.504,496,302.224,496
				c18.76,0,36.392-7.304,49.656-20.568L411.312,416H496V0H0z M340.568,464.12c-10.24,10.24-23.856,15.88-38.344,15.88
				C272.328,480,248,455.672,248,425.776c0-14.488,5.64-28.104,15.88-38.344l59.544-59.544c10.24-10.24,23.856-15.88,38.344-15.88
				c22.072,0,41.376,13.16,49.792,33.12l-12.264,12.264C396.064,340.672,381.36,328,363.712,328
				c-9.424,0-18.256,3.624-25.032,10.112l-0.048-0.048c-0.088,0.088-0.152,0.2-0.24,0.288c-0.104,0.104-0.232,0.168-0.336,0.272
				l-63.432,63.44C267.776,408.912,264,418.032,264,427.72c0,20.008,16.28,36.28,36.288,36.28c9.696,0,18.808-3.776,25.656-10.624
				l23.592-23.6c5.4,1.328,10.944,2.224,16.688,2.224c2.28,0,4.544-0.12,6.792-0.328L340.568,464.12z M316.784,312.336
				c-1.6,1.344-3.176,2.736-4.672,4.24L292.688,336H272v-48h68.688l-24.12,24.12L316.784,312.336z M395.008,304.304l18.368-18.368
				c3.824-3.824,8.92-5.936,14.336-5.936c11.184,0,20.288,9.104,20.288,20.28c0,5.416-2.112,10.504-5.944,14.344l-18.408,18.408
				C417.064,320.672,407.064,310.752,395.008,304.304z M384,364.28c0,5.288-2.04,10.256-5.704,14.056
				c-3.792,3.632-8.736,5.664-14.008,5.664C353.104,384,344,374.896,344,363.72c0-5.288,2.04-10.248,5.704-14.056
				c3.792-3.632,8.736-5.664,14.008-5.664C374.896,344,384,353.104,384,364.28z M304.36,394.952
				c6.6,12.328,16.68,22.192,28.728,28.648l-18.464,18.464c-3.824,3.824-8.92,5.936-14.336,5.936
				C289.104,448,280,438.896,280,427.72c0-5.416,2.112-10.504,5.944-14.344L304.36,394.952z M480,400h-52.688l48.12-48.12
				c1.616-1.616,3.136-3.296,4.568-5.04V400z M464.12,340.568l-59.544,59.544C394.328,410.36,380.712,416,366.224,416
				c-21.928,0-41.344-13.208-49.792-33.128l12.256-12.264c3.248,16.72,17.952,29.392,35.6,29.392
				c9.424,0,18.256-3.624,25.032-10.112l0.048,0.048c0.088-0.088,0.152-0.2,0.24-0.288c0.104-0.104,0.232-0.168,0.336-0.272
				l63.432-63.44C460.224,319.088,464,309.968,464,300.28c0-20.008-16.28-36.28-36.288-36.28c-9.696,0-18.808,3.776-25.656,10.624
				l-23.392,23.4c-5.432-1.328-11.088-2.024-16.888-2.024c-2.28,0-4.544,0.12-6.792,0.328l32.448-32.448
				c10.24-10.24,23.856-15.88,38.344-15.88C455.672,248,480,272.328,480,302.224C480,316.712,474.36,330.328,464.12,340.568z
				 M48,240V112h400v123.664c-6.992-2.344-14.456-3.664-22.224-3.664c-11.536,0-22.64,2.784-32.568,8H48z M480,257.656
				c-4.56-5.536-9.976-10.328-16-14.264V96H32v160h340.688l-16,16H256v80h20.688l-24.12,24.12c-6.92,6.92-12.168,15.04-15.656,23.88
				H16V80h464V257.656z M480,64H16V16h464V64z"/>
			<rect x="32" y="32" width="16" height="16"/>
			<rect x="64" y="32" width="16" height="16"/>
			<rect x="96" y="32" width="16" height="16"/>
			<path d="M144,272H32v112h112V272z M128,368H48v-80h80V368z"/>
			<rect x="160" y="272" width="80" height="16"/>
			<rect x="160" y="304" width="80" height="16"/>
			<rect x="160" y="336" width="80" height="16"/>
			<path d="M432,208h-60.408l-64-72H250.24l-6.4-8h-55.68l-64,80H64v16h368V208z M144.648,208l51.192-64h40.312l29.6,37l12.496-10
				l-15.2-19h37.36l49.776,56H144.648z"/>
			<rect x="160" y="368" width="80" height="16"/>
		</g>
	</g>
</g>
<g>
</g>
<g>
</g>
<g>
</g>
<g>
</g>
<g>
</g>
<g>
</g>
<g>
</g>
<g>
</g>
<g>
</g>
<g>
</g>
<g>
</g>
<g>
</g>
<g>
</g>
<g>
</g>
<g>
</g>
</svg>
