<?xml version="1.0" encoding="iso-8859-1"?>
<!-- Generator: Adobe Illustrator 19.0.0, SVG Export Plug-In . SVG Version: 6.00 Build 0)  -->
<svg version="1.1" id="Layer_1" xmlns="http://www.w3.org/2000/svg" xmlns:xlink="http://www.w3.org/1999/xlink" x="0px" y="0px"
	 viewBox="0 0 496 496" style="enable-background:new 0 0 496 496;" xml:space="preserve">
<g>
	<g>
		<g>
			<path d="M32,336h48v-48H32V336z M48,304h16v16H48V304z"/>
			<path d="M144,288H96v48h48V288z M128,320h-16v-16h16V320z"/>
			<path d="M208,288h-48v48h48V288z M192,320h-16v-16h16V320z"/>
			<path d="M272,288h-48v48h48V288z M256,320h-16v-16h16V320z"/>
			<path d="M336,288h-48v48h48V288z M320,320h-16v-16h16V320z"/>
			<path d="M400,288h-48v48h48V288z M384,320h-16v-16h16V320z"/>
			<path d="M32,400h48v-48H32V400z M48,368h16v16H48V368z"/>
			<path d="M144,352H96v48h48V352z M128,384h-16v-16h16V384z"/>
			<path d="M208,352h-48v48h48V352z M192,384h-16v-16h16V384z"/>
			<path d="M272,352h-48v48h48V352z M256,384h-16v-16h16V384z"/>
			<path d="M336,352h-48v48h48V352z M320,384h-16v-16h16V384z"/>
			<path d="M32,464h48v-48H32V464z M48,432h16v16H48V432z"/>
			<path d="M416,464h48v-48h-48V464z M432,432h16v16h-16V432z"/>
			<path d="M416,352h-64v48h112V288h-48V352z M432,304h16v80h-80v-16h64V304z"/>
			<path d="M96,464h304v-48H96V464z M112,432h272v16H112V432z"/>
			<path d="M0,0v280v8v184c0,13.232,10.768,24,24,24h448c13.232,0,24-10.768,24-24V288v-8V0H0z M480,288v184c0,4.416-3.592,8-8,8H24
				c-4.408,0-8-3.584-8-8V288v-8c0-4.416,3.592-8,8-8h448c4.408,0,8,3.584,8,8V288z M480,257.472c-2.512-0.896-5.184-1.472-8-1.472
				H24c-2.816,0-5.488,0.576-8,1.472V80h464V257.472z M480,64H16V16h464V64z"/>
			<rect x="32" y="32" width="16" height="16"/>
			<rect x="64" y="32" width="16" height="16"/>
			<rect x="96" y="32" width="16" height="16"/>
			<path d="M144,96H32v144h112V96z M128,224H48V112h80V224z"/>
			<rect x="160" y="96" width="80" height="16"/>
			<rect x="160" y="128" width="80" height="16"/>
			<rect x="160" y="160" width="80" height="16"/>
			<path d="M368,96H256v144h112V96z M352,224h-80V112h80V224z"/>
			<rect x="384" y="96" width="80" height="16"/>
			<rect x="384" y="128" width="80" height="16"/>
			<rect x="384" y="160" width="80" height="16"/>
			<rect x="160" y="192" width="80" height="16"/>
			<rect x="160" y="224" width="80" height="16"/>
			<rect x="384" y="192" width="80" height="16"/>
			<rect x="384" y="224" width="80" height="16"/>
			<rect x="304" y="160" width="16" height="16"/>
			<rect x="80" y="160" width="16" height="16"/>
		</g>
	</g>
</g>
<g>
</g>
<g>
</g>
<g>
</g>
<g>
</g>
<g>
</g>
<g>
</g>
<g>
</g>
<g>
</g>
<g>
</g>
<g>
</g>
<g>
</g>
<g>
</g>
<g>
</g>
<g>
</g>
<g>
</g>
</svg>
