<?xml version="1.0" encoding="iso-8859-1"?>
<!-- Generator: Adobe Illustrator 19.0.0, SVG Export Plug-In . SVG Version: 6.00 Build 0)  -->
<svg version="1.1" id="Layer_1" xmlns="http://www.w3.org/2000/svg" xmlns:xlink="http://www.w3.org/1999/xlink" x="0px" y="0px"
	 viewBox="0 0 496 496" style="enable-background:new 0 0 496 496;" xml:space="preserve">
<g>
	<g>
		<g>
			<path d="M0,0v496h496V0H0z M480,480H16V80h464V480z M480,64H16V16h464V64z"/>
			<rect x="32" y="32" width="16" height="16"/>
			<rect x="64" y="32" width="16" height="16"/>
			<rect x="96" y="32" width="16" height="16"/>
			<path d="M464,136H32v288h432V136z M448,408H48V152h400V408z"/>
			<path d="M432,184H224v80h208V184z M416,248H240v-48h176V248z"/>
			<rect x="384" y="216" width="16" height="16"/>
			<rect x="352" y="216" width="16" height="16"/>
			<rect x="320" y="216" width="16" height="16"/>
			<rect x="288" y="216" width="16" height="16"/>
			<rect x="256" y="216" width="16" height="16"/>
			<path d="M432,296H224v80h208V296z M416,360H240v-48h176V360z"/>
			<rect x="384" y="328" width="16" height="16"/>
			<rect x="352" y="328" width="16" height="16"/>
			<rect x="320" y="328" width="16" height="16"/>
			<rect x="288" y="328" width="16" height="16"/>
			<rect x="256" y="328" width="16" height="16"/>
			<path d="M192,320c0-20.88-11.504-39.096-28.496-48.72C175.88,262.584,184,248.232,184,232c0-26.472-21.528-48-48-48
				s-48,21.528-48,48c0,16.232,8.12,30.584,20.496,39.28C91.504,280.904,80,299.12,80,320v56h112V320z M104,232
				c0-17.648,14.352-32,32-32s32,14.352,32,32s-14.352,32-32,32S104,249.648,104,232z M176,360H96v-40c0-22.056,17.944-40,40-40
				c22.056,0,40,17.944,40,40V360z"/>
			<rect x="128" y="296" width="16" height="16"/>
			<rect x="128" y="328" width="16" height="16"/>
		</g>
	</g>
</g>
<g>
</g>
<g>
</g>
<g>
</g>
<g>
</g>
<g>
</g>
<g>
</g>
<g>
</g>
<g>
</g>
<g>
</g>
<g>
</g>
<g>
</g>
<g>
</g>
<g>
</g>
<g>
</g>
<g>
</g>
</svg>
