<?xml version="1.0" encoding="iso-8859-1"?>
<!-- Generator: Adobe Illustrator 19.0.0, SVG Export Plug-In . SVG Version: 6.00 Build 0)  -->
<svg version="1.1" id="Layer_1" xmlns="http://www.w3.org/2000/svg" xmlns:xlink="http://www.w3.org/1999/xlink" x="0px" y="0px"
	 viewBox="0 0 496 496" style="enable-background:new 0 0 496 496;" xml:space="preserve">
<g>
	<g>
		<g>
			<path d="M464,80.808V0H32v80.808C13.768,84.528,0,100.688,0,120v288c0,22.056,17.944,40,40,40h104v32h-32v16h272v-16h-32v-32h104
				c22.056,0,40-17.944,40-40V120C496,100.688,482.232,84.528,464,80.808z M48,16h400v48H48V16z M48,80h400v272H48V80z M336,480H160
				v-32h176V480z M480,408c0,13.232-10.768,24-24,24H40c-13.232,0-24-10.768-24-24v-8h464V408z M480,384H16V120
				c0-10.416,6.712-19.216,16-22.528V368h432V97.472c9.288,3.312,16,12.112,16,22.528V384z"/>
			<rect x="64" y="32" width="16" height="16"/>
			<rect x="96" y="32" width="16" height="16"/>
			<rect x="128" y="32" width="16" height="16"/>
			<path d="M256,96H64v144h192V96z M240,224H80V112h160V224z"/>
			<path d="M384.4,96c-12.128,0-23.56,4.504-32.4,12.728C343.168,100.504,331.728,96,319.6,96c-26.248,0-47.6,21.352-47.6,47.6
				c0,12.712,4.952,24.664,13.944,33.656L352,243.312l66.056-66.056C427.048,168.264,432,156.312,432,143.6
				C432,117.352,410.648,96,384.4,96z M406.744,165.944L352,220.688l-54.744-54.752C291.288,159.976,288,152.04,288,143.6
				c0-17.424,14.176-31.6,31.6-31.6c8.44,0,16.376,3.288,22.344,9.256L352,131.32l10.056-10.064
				C368.024,115.288,375.96,112,384.4,112c17.424,0,31.6,14.176,31.6,31.6C416,152.04,412.712,159.976,406.744,165.944z"/>
			<rect x="64" y="256" width="368" height="16"/>
			<rect x="64" y="288" width="176" height="16"/>
			<rect x="256" y="288" width="176" height="16"/>
			<rect x="64" y="320" width="176" height="16"/>
			<rect x="256" y="320" width="176" height="16"/>
		</g>
	</g>
</g>
<g>
</g>
<g>
</g>
<g>
</g>
<g>
</g>
<g>
</g>
<g>
</g>
<g>
</g>
<g>
</g>
<g>
</g>
<g>
</g>
<g>
</g>
<g>
</g>
<g>
</g>
<g>
</g>
<g>
</g>
</svg>
