<?xml version="1.0" encoding="iso-8859-1"?>
<!-- Generator: Adobe Illustrator 19.0.0, SVG Export Plug-In . SVG Version: 6.00 Build 0)  -->
<svg version="1.1" id="Layer_1" xmlns="http://www.w3.org/2000/svg" xmlns:xlink="http://www.w3.org/1999/xlink" x="0px" y="0px"
	 viewBox="0 0 496 496" style="enable-background:new 0 0 496 496;" xml:space="preserve">
<g>
	<g>
		<g>
			<rect x="32" y="32" width="16" height="16"/>
			<rect x="64" y="32" width="16" height="16"/>
			<rect x="96" y="32" width="16" height="16"/>
			<path d="M472,112h-8V0H0v416h256v56c0,13.232,10.768,24,24,24h192c13.232,0,24-10.768,24-24V136C496,122.768,485.232,112,472,112
				z M16,16h432v48H16V16z M256,136v264H16V80h432v32H280C266.768,112,256,122.768,256,136z M480,472c0,4.416-3.584,8-8,8H280
				c-4.416,0-8-3.584-8-8v-24h208V472z M480,432H272V176h208V432z M480,160H272v-24c0-4.408,3.584-8,8-8h192c4.416,0,8,3.592,8,8
				V160z"/>
			<path d="M448,288h-16v-40c0-30.88-25.128-56-56-56s-56,25.12-56,56v40h-16v128h144V288z M336,248c0-22.056,17.944-40,40-40
				c22.056,0,40,17.944,40,40v40h-16v-40c0-13.232-10.768-24-24-24s-24,10.768-24,24v40h-16V248z M384,248v40h-16v-40
				c0-4.408,3.584-8,8-8C380.416,240,384,243.592,384,248z M432,400H320v-96h112V400z"/>
			<path d="M368,366.528V384h16v-17.472c9.288-3.312,16-12.112,16-22.528c0-13.232-10.768-24-24-24s-24,10.768-24,24
				C352,354.416,358.712,363.216,368,366.528z M376,336c4.416,0,8,3.584,8,8c0,4.416-3.584,8-8,8c-4.416,0-8-3.584-8-8
				C368,339.584,371.584,336,376,336z"/>
			<path d="M208,240c-17.648,0-32,14.352-32,32s14.352,32,32,32s32-14.352,32-32S225.648,240,208,240z M208,288
				c-8.824,0-16-7.176-16-16c0-8.824,7.176-16,16-16c8.824,0,16,7.176,16,16C224,280.824,216.824,288,208,288z"/>
			<path d="M208,200c-39.704,0-72,32.304-72,72h16c0-30.88,25.128-56,56-56V200z"/>
			<path d="M208,176v-16c-61.76,0-112,50.24-112,112h16C112,219.064,155.064,176,208,176z"/>
			<path d="M208,136v-16c-83.816,0-152,68.184-152,152h16C72,197.008,133.008,136,208,136z"/>
		</g>
	</g>
</g>
<g>
</g>
<g>
</g>
<g>
</g>
<g>
</g>
<g>
</g>
<g>
</g>
<g>
</g>
<g>
</g>
<g>
</g>
<g>
</g>
<g>
</g>
<g>
</g>
<g>
</g>
<g>
</g>
<g>
</g>
</svg>
