<?xml version="1.0" encoding="iso-8859-1"?>
<!-- Generator: Adobe Illustrator 19.0.0, SVG Export Plug-In . SVG Version: 6.00 Build 0)  -->
<svg version="1.1" id="Layer_1" xmlns="http://www.w3.org/2000/svg" xmlns:xlink="http://www.w3.org/1999/xlink" x="0px" y="0px"
	 viewBox="0 0 496 496" style="enable-background:new 0 0 496 496;" xml:space="preserve">
<g>
	<g>
		<g>
			<path d="M456,40H40C17.944,40,0,57.944,0,80v288c0,22.056,17.944,40,40,40h104v32h-32v16h272v-16h-32v-32h104
				c22.056,0,40-17.944,40-40V80C496,57.944,478.056,40,456,40z M336,440H160v-32h176V440z M480,368c0,13.232-10.768,24-24,24H40
				c-13.232,0-24-10.768-24-24v-8h464V368z M480,344H16V80c0-13.232,10.768-24,24-24h416c13.232,0,24,10.768,24,24V344z"/>
			<path d="M32,328h432V72H32V328z M48,88h400v48H48V88z M48,152h400v160H48V152z"/>
			<rect x="64" y="104" width="16" height="16"/>
			<rect x="96" y="104" width="16" height="16"/>
			<rect x="128" y="104" width="16" height="16"/>
			<polygon points="96,200 96,208 105.224,264 124.944,264 136,241.888 147.056,264 166.776,264 175.888,209.312 176,200 160,200 
				160,207.336 154.16,242.424 136,206.112 117.84,242.424 112,207.336 112,200 			"/>
			<polygon points="320,200 320,208 329.224,264 348.944,264 360,241.888 371.056,264 390.776,264 399.888,209.312 400,200 384,200 
				384,207.336 378.16,242.424 360,206.112 341.84,242.424 336,207.336 336,200 			"/>
			<polygon points="208,200 208,208 217.224,264 236.944,264 248,241.888 259.056,264 278.776,264 287.888,209.312 288,200 272,200 
				272,207.336 266.16,242.424 248,206.112 229.84,242.424 224,207.336 224,200 			"/>
			<rect x="64" y="168" width="368" height="16"/>
			<rect x="64" y="280" width="368" height="16"/>
			<rect x="184" y="248" width="16" height="16"/>
			<rect x="296" y="248" width="16" height="16"/>
		</g>
	</g>
</g>
<g>
</g>
<g>
</g>
<g>
</g>
<g>
</g>
<g>
</g>
<g>
</g>
<g>
</g>
<g>
</g>
<g>
</g>
<g>
</g>
<g>
</g>
<g>
</g>
<g>
</g>
<g>
</g>
<g>
</g>
</svg>
