<?xml version="1.0" encoding="iso-8859-1"?>
<!-- Generator: Adobe Illustrator 19.0.0, SVG Export Plug-In . SVG Version: 6.00 Build 0)  -->
<svg version="1.1" id="Layer_1" xmlns="http://www.w3.org/2000/svg" xmlns:xlink="http://www.w3.org/1999/xlink" x="0px" y="0px"
	 viewBox="0 0 496.536 496.536" style="enable-background:new 0 0 496.536 496.536;" xml:space="preserve">
<g>
	<g>
		<g>
			<path d="M456.268,80.536h-56v-56h-8C314.772,24.536,251.7,1.28,251.076,1.04L248.268,0l-2.8,1.048
				c-0.632,0.232-63.704,23.488-141.2,23.488h-8v56h-56c-22.056,0-40,17.944-40,40v288c0,22.056,17.944,40,40,40h104v32h-32v16h272
				v-16h-32v-32h104c22.056,0,40-17.944,40-40v-288C496.268,98.48,478.324,80.536,456.268,80.536z M112.268,40.456
				c68.36-1.304,123.08-18.92,136-23.424c12.92,4.504,67.64,22.12,136,23.424v139.048c0,53.184-32.032,100.016-81.608,119.296
				l-54.392,21.152L193.876,298.8c-49.576-19.28-81.608-66.104-81.608-119.296V40.456z M188.076,313.704l60.192,23.416
				l60.192-23.416c55.776-21.68,91.808-74.36,91.808-134.2v-50.968h48v224h-400v-224h48v50.968
				C96.268,239.344,132.3,292.024,188.076,313.704z M336.268,480.536h-176v-32h176V480.536z M480.268,408.536
				c0,13.232-10.768,24-24,24h-416c-13.232,0-24-10.768-24-24v-8h464V408.536z M480.268,384.536h-464v-264c0-13.232,10.768-24,24-24
				h56v16h-64v256h432v-256h-64v-16h56c13.232,0,24,10.768,24,24V384.536z"/>
			<path d="M208.268,272.536l40,16.664l40-16.664c38.88-16.192,64-53.88,64-96V73.312l-7.184-0.736
				c-32.944-3.36-60.768-12.608-81.096-19.36c-5.032-1.672-9.52-3.168-13.408-4.336l-2.312-0.704l-2.312,0.704
				c-3.888,1.168-8.376,2.664-13.408,4.336c-20.328,6.752-48.152,16-81.096,19.36l-7.184,0.736v103.224
				C144.268,218.656,169.388,256.344,208.268,272.536z M160.268,87.664c31.64-4.08,58.872-13.128,77.328-19.264
				c3.904-1.304,7.472-2.488,10.672-3.488c3.2,1,6.768,2.184,10.672,3.488c18.456,6.144,45.688,15.184,77.328,19.264v88.872
				c0,35.64-21.256,67.52-54.16,81.232l-33.84,14.104l-33.84-14.104c-32.904-13.712-54.16-45.592-54.16-81.232V87.664z"/>
			<rect x="240.268" y="112.536" width="16" height="16"/>
			<rect x="272.268" y="112.536" width="16" height="16"/>
			<rect x="208.268" y="112.536" width="16" height="16"/>
		</g>
	</g>
</g>
<g>
</g>
<g>
</g>
<g>
</g>
<g>
</g>
<g>
</g>
<g>
</g>
<g>
</g>
<g>
</g>
<g>
</g>
<g>
</g>
<g>
</g>
<g>
</g>
<g>
</g>
<g>
</g>
<g>
</g>
</svg>
