<?xml version="1.0" encoding="iso-8859-1"?>
<!-- Generator: Adobe Illustrator 19.0.0, SVG Export Plug-In . SVG Version: 6.00 Build 0)  -->
<svg version="1.1" id="Layer_1" xmlns="http://www.w3.org/2000/svg" xmlns:xlink="http://www.w3.org/1999/xlink" x="0px" y="0px"
	 viewBox="0 0 496 496" style="enable-background:new 0 0 496 496;" xml:space="preserve">
<g>
	<g>
		<g>
			<path d="M456,80h-24V0H64v80H40C17.944,80,0,97.944,0,120v288c0,22.056,17.944,40,40,40h104v32h-32v16h272v-16h-32v-32h104
				c22.056,0,40-17.944,40-40V120C496,97.944,478.056,80,456,80z M80,16h336v288H80V16z M432,320V128h16v224H48V128h16v192H432z
				 M336,480H160v-32h176V480z M480,408c0,13.232-10.768,24-24,24H40c-13.232,0-24-10.768-24-24v-8h464V408z M480,384H16V120
				c0-13.232,10.768-24,24-24h24v16H32v256h432V112h-32V96h24c13.232,0,24,10.768,24,24V384z"/>
			<path d="M376,48c-13.232,0-24,10.768-24,24c0,3.936,1.048,7.6,2.736,10.888L305.68,138.08c-2.968-1.32-6.232-2.08-9.68-2.08
				c-6.072,0-11.56,2.336-15.792,6.072l-56.368-12.528c0.04-0.52,0.16-1.016,0.16-1.544c0-13.232-10.768-24-24-24s-24,10.768-24,24
				c0,3.416,0.736,6.648,2.032,9.592l-47.064,41.184c-3.304-1.712-7-2.776-10.968-2.776c-13.232,0-24,10.768-24,24s10.768,24,24,24
				s24-10.768,24-24c0-3.416-0.736-6.648-2.032-9.592l47.064-41.184c3.304,1.712,7,2.776,10.968,2.776
				c6.832,0,12.976-2.904,17.344-7.504l54.984,12.216C272.184,157.8,272,158.872,272,160c0,13.232,10.768,24,24,24s24-10.768,24-24
				c0-3.936-1.048-7.6-2.736-10.888L366.32,93.92c2.968,1.32,6.232,2.08,9.68,2.08c13.232,0,24-10.768,24-24S389.232,48,376,48z
				 M120,208c-4.408,0-8-3.584-8-8s3.592-8,8-8s8,3.584,8,8S124.408,208,120,208z M200,136c-4.408,0-8-3.584-8-8s3.592-8,8-8
				s8,3.584,8,8S204.408,136,200,136z M296,168c-4.408,0-8-3.584-8-8s3.592-8,8-8c4.408,0,8,3.584,8,8S300.408,168,296,168z M376,80
				c-4.408,0-8-3.584-8-8s3.592-8,8-8c4.408,0,8,3.584,8,8S380.408,80,376,80z"/>
			<rect x="112" y="240" width="16" height="16"/>
			<rect x="192" y="168" width="16" height="88"/>
			<rect x="288" y="200" width="16" height="56"/>
			<rect x="368" y="112" width="16" height="144"/>
			<rect x="368" y="272" width="16" height="16"/>
			<rect x="112" y="272" width="16" height="16"/>
			<rect x="192" y="272" width="16" height="16"/>
			<rect x="288" y="272" width="16" height="16"/>
		</g>
	</g>
</g>
<g>
</g>
<g>
</g>
<g>
</g>
<g>
</g>
<g>
</g>
<g>
</g>
<g>
</g>
<g>
</g>
<g>
</g>
<g>
</g>
<g>
</g>
<g>
</g>
<g>
</g>
<g>
</g>
<g>
</g>
</svg>
