<?xml version="1.0" encoding="iso-8859-1"?>
<!-- Generator: Adobe Illustrator 19.0.0, SVG Export Plug-In . SVG Version: 6.00 Build 0)  -->
<svg version="1.1" id="Layer_1" xmlns="http://www.w3.org/2000/svg" xmlns:xlink="http://www.w3.org/1999/xlink" x="0px" y="0px"
	 viewBox="0 0 496 496" style="enable-background:new 0 0 496 496;" xml:space="preserve">
<g>
	<g>
		<g>
			<path d="M456,40H40C17.944,40,0,57.944,0,80v288c0,22.056,17.944,40,40,40h104v32h-32v16h272v-16h-32v-32h104
				c22.056,0,40-17.944,40-40V80C496,57.944,478.056,40,456,40z M336,440H160v-32h176V440z M480,368c0,13.232-10.768,24-24,24H40
				c-13.232,0-24-10.768-24-24v-8h464V368z M480,344H16V80c0-13.232,10.768-24,24-24h416c13.232,0,24,10.768,24,24V344z"/>
			<path d="M32,328h432V72H32V328z M176.472,312C180.464,276.056,211,248,248,248s67.536,28.056,71.528,64H176.472z M384,312
				h-48.408c-4.056-44.784-41.768-80-87.592-80c-45.824,0-83.536,35.216-87.592,80H112v-16h18.392l1.552-6
				c2.808-10.88,7.104-21.256,12.768-30.856l3.152-5.336l-13.008-13l33.944-33.944l13,13l5.344-3.16
				c9.6-5.664,19.976-9.968,30.848-12.768l6.008-1.544V184h48v18.392l6,1.544c10.872,2.808,21.248,7.104,30.848,12.768l5.344,3.16
				l13-13l33.944,33.944l-13,13l3.152,5.336c5.664,9.6,9.96,19.976,12.768,30.856l1.552,6H384V312z M48,88h400v48H48V88z M48,152
				h400v160h-48v-32h-22.152c-2.504-8.16-5.768-16.04-9.736-23.544L383.76,240.8l-56.568-56.568l-15.648,15.648
				c-7.504-3.976-15.392-7.24-23.544-9.744V168h-80v22.144c-8.16,2.504-16.04,5.768-23.544,9.744l-15.648-15.648l-56.568,56.568
				l15.648,15.656c-3.968,7.504-7.232,15.384-9.736,23.544H96v32H48V152z"/>
			<rect x="64" y="104" width="16" height="16"/>
			<rect x="96" y="104" width="16" height="16"/>
			<rect x="128" y="104" width="16" height="16"/>
			<rect x="240" y="280" width="16" height="16"/>
			<rect x="272" y="280" width="16" height="16"/>
			<rect x="208" y="280" width="16" height="16"/>
			<rect x="400" y="168" width="16" height="16"/>
			<rect x="400" y="200" width="16" height="16"/>
			<rect x="416" y="184" width="16" height="16"/>
			<rect x="384" y="184" width="16" height="16"/>
			<rect x="80" y="208" width="16" height="16"/>
			<rect x="80" y="240" width="16" height="16"/>
			<rect x="96" y="224" width="16" height="16"/>
			<rect x="64" y="224" width="16" height="16"/>
		</g>
	</g>
</g>
<g>
</g>
<g>
</g>
<g>
</g>
<g>
</g>
<g>
</g>
<g>
</g>
<g>
</g>
<g>
</g>
<g>
</g>
<g>
</g>
<g>
</g>
<g>
</g>
<g>
</g>
<g>
</g>
<g>
</g>
</svg>
