<?xml version="1.0" encoding="iso-8859-1"?>
<!-- Generator: Adobe Illustrator 19.0.0, SVG Export Plug-In . SVG Version: 6.00 Build 0)  -->
<svg version="1.1" id="Layer_1" xmlns="http://www.w3.org/2000/svg" xmlns:xlink="http://www.w3.org/1999/xlink" x="0px" y="0px"
	 viewBox="0 0 496 496" style="enable-background:new 0 0 496 496;" xml:space="preserve">
<g>
	<g>
		<g>
			<path d="M456,32H40C17.944,32,0,49.944,0,72v304c0,22.056,17.944,40,40,40h104v32h-32v16h272v-16h-32v-32h104
				c22.056,0,40-17.944,40-40V72C496,49.944,478.056,32,456,32z M432,80h16v240H48V80h304v16h-80v16h80v16h-80v16h80v16h-80v16h80
				v16h-80v16h80v16h-80v16h80v4.944l40-20l40,20V80z M368,48h48v171.056l-24-12l-24,12V48z M336,448H160v-32h176V448z M480,376
				c0,13.232-10.768,24-24,24H40c-13.232,0-24-10.768-24-24v-8h464V376z M480,352H16V72c0-13.232,10.768-24,24-24h312v16H32v272h432
				V64h-32V48h24c13.232,0,24,10.768,24,24V352z"/>
			<path d="M256,96H64v144h192V96z M240,224H80V112h160V224z"/>
			<rect x="64" y="256" width="112" height="16"/>
			<rect x="192" y="256" width="112" height="16"/>
			<rect x="320" y="256" width="112" height="16"/>
			<rect x="64" y="288" width="112" height="16"/>
			<rect x="192" y="288" width="112" height="16"/>
			<rect x="320" y="288" width="112" height="16"/>
		</g>
	</g>
</g>
<g>
</g>
<g>
</g>
<g>
</g>
<g>
</g>
<g>
</g>
<g>
</g>
<g>
</g>
<g>
</g>
<g>
</g>
<g>
</g>
<g>
</g>
<g>
</g>
<g>
</g>
<g>
</g>
<g>
</g>
</svg>
