<?xml version="1.0" encoding="iso-8859-1"?>
<!-- Generator: Adobe Illustrator 19.0.0, SVG Export Plug-In . SVG Version: 6.00 Build 0)  -->
<svg version="1.1" id="Layer_1" xmlns="http://www.w3.org/2000/svg" xmlns:xlink="http://www.w3.org/1999/xlink" x="0px" y="0px"
	 viewBox="0 0 496 496" style="enable-background:new 0 0 496 496;" xml:space="preserve">
<g>
	<g>
		<path d="M379.128,313.032C412.968,278.816,432,233.088,432,184C432,82.536,349.456,0,248,0S64,82.536,64,184
			c0,73.432,44.824,140.608,112.072,169.264c-0.008,0.384-0.072,0.768-0.072,1.16v76.608c0,13.088,5.096,25.384,14.344,34.624
			c6.224,6.224,9.656,14.504,9.656,23.312V496h16v-7.032c0-13.088-5.096-25.384-14.344-34.624
			C195.432,448.12,192,439.84,192,431.032v-76.608c0-8.848,4.4-17.072,11.768-21.984c4.352-2.912,9.416-4.44,14.656-4.44H224v48h16
			V188c0-6.616,5.384-12,12-12c6.616,0,12,5.384,12,12v156h16v-20c0-6.616,5.384-12,12-12c6.616,0,12,5.384,12,12v20h16v-20
			c0-6.616,5.384-12,12-12c6.616,0,12,5.384,12,12v20h16v-4c0-6.616,5.384-12,12-12c6.616,0,12,5.384,12,12v84.112
			c0,4.208-0.792,8.328-2.352,12.248l-10.144,25.344C369.176,467.52,368,473.64,368,479.888V496h16v-16.112
			c0-4.208,0.792-8.328,2.352-12.248l10.144-25.344c2.328-5.816,3.504-11.936,3.504-18.184V340
			C400,327.04,391.104,316.208,379.128,313.032z M217.568,18.904C200.44,32.952,178.744,55.8,163.344,89.688
			c-22.296-3.792-36.912-8.472-45.392-11.88C142.664,47.6,177.688,26.24,217.568,18.904z M108.152,91.088
			c8.632,3.824,24.36,9.376,49.048,13.808c-7.288,20.208-12.2,43.792-13.016,71.104H80.408
			C81.888,144.72,91.8,115.632,108.152,91.088z M108.328,276.864C91.768,251.96,81.808,222.712,80.312,192h63.864
			c0.768,25.248,5.192,49.088,13.184,71.096C132.632,267.512,117.008,273.048,108.328,276.864z M224,312h-5.576
			c-8.408,0-16.544,2.464-23.528,7.128c-6.856,4.568-12.048,10.96-15.256,18.264c-24.256-10.848-45.208-27.184-61.544-47.24
			c14.68-5.856,47.392-15.48,105.904-17.632V312z M224,256.504c-19.384,0.696-36.168,2.152-50.488,4.088
			c-8.056-21.072-12.544-44.088-13.336-68.592H224V256.504z M239.992,162.808c-5.768,2.768-10.416,7.416-13.184,13.192h-66.632
			c0.848-26.576,5.848-49.32,13.152-68.592c18.152,2.456,40.208,4.176,66.664,4.48V162.808z M240,95.888
			c-23.584-0.28-43.52-1.704-60.088-3.776C198.28,54.2,224.888,32.224,240,22.072V95.888z M388,277.016
			c-8.616-3.824-24.368-9.432-49.432-13.912C346.56,241.16,350.96,217.4,351.72,192h64.048
			C414.336,222.864,404.664,252.032,388,277.016z M387.848,91.088c16.36,24.544,26.264,53.632,27.744,84.912h-63.776
			c-0.816-27.312-5.728-50.896-13.016-71.104C363.488,100.464,379.216,94.912,387.848,91.088z M378.04,77.808
			c-8.472,3.408-23.088,8.088-45.392,11.88c-15.4-33.888-37.096-56.736-54.224-70.784C318.312,26.24,353.336,47.6,378.04,77.808z
			 M256,22.224c14.984,10.288,41.408,32.44,59.776,69.936c-16.504,2.048-36.344,3.456-59.776,3.728V22.224z M277.192,176.008
			c-3.96-8.272-11.808-14.24-21.192-15.6v-48.512c26.344-0.304,48.328-2.008,66.432-4.448c7.416,19.304,12.52,42.056,13.384,68.56
			H277.192z M302.832,298.2c-3.336-1.408-6.992-2.2-10.832-2.2c-4.296,0-8.36,0.968-12,2.704v-25.832
			c13.336,0.672,25.304,1.712,35.864,3.016C312.072,283.632,307.68,291.04,302.832,298.2z M280,256.856V192h55.728
			c-0.792,24.632-5.192,47.576-13.256,68.616C310.152,258.952,296.04,257.64,280,256.856z M357.136,311.736
			C352.576,302.432,343.04,296,332,296c-3.504,0-6.816,0.728-9.912,1.912c3.8-6.336,7.16-12.904,10.24-19.616
			c22.544,3.808,37.344,8.552,45.872,11.968C371.888,297.952,364.864,305.144,357.136,311.736z"/>
	</g>
</g>
<g>
</g>
<g>
</g>
<g>
</g>
<g>
</g>
<g>
</g>
<g>
</g>
<g>
</g>
<g>
</g>
<g>
</g>
<g>
</g>
<g>
</g>
<g>
</g>
<g>
</g>
<g>
</g>
<g>
</g>
</svg>
