<?xml version="1.0" encoding="iso-8859-1"?>
<!-- Generator: Adobe Illustrator 19.0.0, SVG Export Plug-In . SVG Version: 6.00 Build 0)  -->
<svg version="1.1" id="Layer_1" xmlns="http://www.w3.org/2000/svg" xmlns:xlink="http://www.w3.org/1999/xlink" x="0px" y="0px"
	 viewBox="0 0 496 496" style="enable-background:new 0 0 496 496;" xml:space="preserve">
<g>
	<g>
		<g>
			<path d="M472,0H160c-13.232,0-24,10.768-24,24v124.824C56.84,167.248,0,238.096,0,320c0,97.048,78.952,176,176,176
				s176-78.952,176-176c0-90.848-69.192-165.832-157.648-175.04l16.96-16.96H472c13.232,0,24-10.768,24-24V24
				C496,10.768,485.232,0,472,0z M136,165.264v11.712c-13.368,14.792-27.464,34.248-38.192,58.392
				c-21.096-8.232-32.648-18.504-38.2-24.912C79.856,188.92,106.08,172.968,136,165.264z M167.992,312h-71.76
				c0.832-20.96,4.8-39.84,10.736-56.568c16.328,4.624,36.408,7.872,61.024,8.456V312z M49.12,222.856
				c7.44,8.096,20.648,18.976,42.648,27.52C85.336,268.584,81.072,289.152,80.24,312H16.352
				C18.016,278.832,29.856,248,49.12,222.856z M49.144,417.12C29.976,392.144,18.072,361.432,16.408,328h63.784
				c0.832,22.936,5.152,43.472,11.536,61.632C69.768,398.168,56.584,409.032,49.144,417.12z M59.656,429.496
				c5.56-6.4,17.056-16.608,38.016-24.808c15.048,34.048,36.68,58.344,52.712,73.064C114.872,472,83.288,454.592,59.656,429.496z
				 M168,471.792c-14.456-12.264-38.504-36.416-54.808-72.208c14.608-4,32.696-6.792,54.808-7.36V471.792z M168,376.12
				c-24.552,0.584-44.6,3.816-60.904,8.416c-5.968-16.72-10.056-35.56-10.904-56.536H168V376.12z M168,247.776
				c-22.16-0.576-40.28-3.368-54.904-7.384c6.664-14.672,14.656-27.456,22.904-38.336v1.256l32-32V247.776z M184,471.744v-79.52
				c22.08,0.568,40.152,3.352,54.752,7.344C222.448,435.272,198.448,459.448,184,471.744z M255.808,328
				c-0.848,20.96-4.952,39.8-10.944,56.52c-16.296-4.6-36.328-7.824-60.864-8.4V328H255.808z M184,312v-48.12
				c24.552-0.584,44.6-3.816,60.904-8.416c5.968,16.72,10.056,35.56,10.904,56.536H184z M201.616,477.752
				c16.032-14.72,37.664-39.024,52.712-73.064c20.952,8.2,32.456,18.416,38.016,24.808C268.712,454.592,237.128,472,201.616,477.752
				z M302.856,417.12c-7.44-8.088-20.624-18.952-42.584-27.488c6.376-18.168,10.704-38.704,11.536-61.632h63.784
				C333.928,361.432,322.024,392.144,302.856,417.12z M302.856,222.88c19.168,24.976,31.072,55.688,32.736,89.12h-63.784
				c-0.832-22.936-5.152-43.472-11.536-61.632C282.232,241.832,295.416,230.968,302.856,222.88z M292.344,210.504
				c-5.56,6.4-17.056,16.608-38.016,24.808c-15.048-34.048-36.68-58.344-52.712-73.064C237.128,168,268.712,185.408,292.344,210.504
				z M238.808,240.416c-14.608,4-32.696,6.792-54.808,7.36v-79.568C198.456,180.472,222.504,204.624,238.808,240.416z M480,104
				c0,4.408-3.584,8-8,8H204.688L152,164.688V24c0-4.408,3.584-8,8-8h312c4.416,0,8,3.592,8,8V104z"/>
			<polygon points="240,38.704 228.936,71.888 222.552,40 201.448,40 195.064,71.888 184,38.704 184,32 168,32 168,41.296 
				186.232,96 206.552,96 212,68.792 217.448,96 237.768,96 256,41.296 256,32 240,32 			"/>
			<polygon points="344,38.704 332.936,71.888 326.552,40 305.448,40 299.064,71.888 288,38.704 288,32 272,32 272,41.296 
				290.232,96 310.552,96 316,68.792 321.448,96 341.768,96 360,41.296 360,32 344,32 			"/>
			<polygon points="448,38.704 436.936,71.888 430.552,40 409.448,40 403.064,71.888 392,38.704 392,32 376,32 376,41.296 
				394.232,96 414.552,96 420,68.792 425.448,96 445.768,96 464,41.296 464,32 448,32 			"/>
			<rect x="200" y="280" width="16" height="16"/>
			<rect x="136" y="344" width="16" height="16"/>
		</g>
	</g>
</g>
<g>
</g>
<g>
</g>
<g>
</g>
<g>
</g>
<g>
</g>
<g>
</g>
<g>
</g>
<g>
</g>
<g>
</g>
<g>
</g>
<g>
</g>
<g>
</g>
<g>
</g>
<g>
</g>
<g>
</g>
</svg>
