<?xml version="1.0" encoding="iso-8859-1"?>
<!-- Generator: Adobe Illustrator 19.0.0, SVG Export Plug-In . SVG Version: 6.00 Build 0)  -->
<svg version="1.1" id="Layer_1" xmlns="http://www.w3.org/2000/svg" xmlns:xlink="http://www.w3.org/1999/xlink" x="0px" y="0px"
	 viewBox="0 0 496 496" style="enable-background:new 0 0 496 496;" xml:space="preserve">
<g>
	<g>
		<g>
			<path d="M472,368V88c0-13.232-10.768-24-24-24H48c-13.232,0-24,10.768-24,24v280H0v40c0,13.232,10.768,24,24,24h448
				c13.232,0,24-10.768,24-24v-40H472z M40,88c0-4.416,3.584-8,8-8h400c4.416,0,8,3.584,8,8v280H40V88z M288,384v8h-80v-8H288z
				 M480,408c0,4.416-3.584,8-8,8H24c-4.416,0-8-3.584-8-8v-24h176v24h112v-24h176V408z"/>
			<rect x="56" y="96" width="16" height="16"/>
			<rect x="88" y="96" width="16" height="16"/>
			<rect x="120" y="96" width="16" height="16"/>
			<rect x="56" y="128" width="384" height="16"/>
			<path d="M56,272h112v-96H56V272z M72,192h80v64H72V192z"/>
			<path d="M184,288h128V160H184V288z M200,176h96v96h-96V176z"/>
			<path d="M328,272h112v-96H328V272z M344,192h80v64h-80V192z"/>
			<rect x="184" y="304" width="128" height="16"/>
			<rect x="184" y="336" width="96" height="16"/>
			<rect x="296" y="336" width="16" height="16"/>
			<rect x="352" y="304" width="64" height="16"/>
			<rect x="80" y="304" width="64" height="16"/>
		</g>
	</g>
</g>
<g>
</g>
<g>
</g>
<g>
</g>
<g>
</g>
<g>
</g>
<g>
</g>
<g>
</g>
<g>
</g>
<g>
</g>
<g>
</g>
<g>
</g>
<g>
</g>
<g>
</g>
<g>
</g>
<g>
</g>
</svg>
