<?xml version="1.0" encoding="iso-8859-1"?>
<!-- Generator: Adobe Illustrator 19.0.0, SVG Export Plug-In . SVG Version: 6.00 Build 0)  -->
<svg version="1.1" id="Layer_1" xmlns="http://www.w3.org/2000/svg" xmlns:xlink="http://www.w3.org/1999/xlink" x="0px" y="0px"
	 viewBox="0 0 496 496" style="enable-background:new 0 0 496 496;" xml:space="preserve">
<g>
	<g>
		<g>
			<path d="M456,79.93h-36.216c-3.32-6.016-8.408-11.04-14.816-14.08L281.88,7.546c-21.048-9.968-46.72-9.968-67.768,0L91.04,65.85
				c-6.416,3.04-11.496,8.056-14.816,14.08H40c-22.056,0-40,17.944-40,40v288c0,22.056,17.944,40,40,40h104v32h-32v16h272v-16h-32
				v-32h104c22.056,0,40-17.944,40-40v-288C496,97.874,478.056,79.93,456,79.93z M97.88,80.314L220.96,22.01
				c8.4-3.976,17.752-6.08,27.04-6.08c9.288,0,18.64,2.104,27.04,6.08l123.08,58.304c6,2.84,9.88,8.968,9.88,15.616
				s-3.88,12.776-9.88,15.616L275.04,169.85c-16.8,7.952-37.28,7.952-54.08,0L97.88,111.546c-6-2.84-9.88-8.968-9.88-15.616
				S91.88,83.154,97.88,80.314z M275.032,249.85c-16.768,7.96-37.288,7.96-54.072,0L97.88,191.546c-6-2.84-9.88-8.968-9.88-15.616
				s3.88-12.776,9.88-15.624l32.784-15.528l83.448,39.536c10.528,4.984,22.248,7.616,33.888,7.616s23.36-2.632,33.88-7.616
				l83.448-39.536l32.776,15.528c6.016,2.848,9.896,8.976,9.896,15.624s-3.88,12.776-9.88,15.616L275.032,249.85z M365.328,224.778
				l32.776,15.528c6.016,2.848,9.896,8.976,9.896,15.624c0,6.64-3.88,12.776-9.88,15.624L275.032,329.85
				c-16.768,7.952-37.288,7.952-54.072,0L97.888,271.554C91.88,268.706,88,262.57,88,255.93c0-6.648,3.88-12.776,9.88-15.624
				l32.784-15.528l83.448,39.528c10.52,4.992,22.232,7.624,33.888,7.624s23.368-2.632,33.88-7.624L365.328,224.778z M336,479.93H160
				v-32h176V479.93z M480,407.93c0,13.232-10.768,24-24,24H40c-13.232,0-24-10.768-24-24v-8h464V407.93z M480,383.93H16v-264
				c0-13.232,10.768-24,24-24h32c0,12.8,7.48,24.6,19.04,30.08l20.936,9.92l-20.944,9.92C79.472,151.33,72,163.138,72,175.93
				c0,12.8,7.48,24.6,19.04,30.08l20.936,9.92l-20.952,9.92C79.472,231.33,72,243.138,72,255.93s7.472,24.592,19.04,30.08
				l123.072,58.296c10.52,4.992,22.232,7.624,33.888,7.624s23.368-2.632,33.88-7.624l123.088-58.296
				c11.56-5.488,19.032-17.288,19.032-30.08s-7.472-24.6-19.04-30.08l-20.944-9.92l20.944-9.92c11.56-5.48,19.04-17.28,19.04-30.08
				c0-12.792-7.472-24.6-19.04-30.08l-20.944-9.92l20.944-9.92c11.56-5.48,19.04-17.28,19.04-30.08h32c13.232,0,24,10.768,24,24
				V383.93z"/>
			<path d="M248,127.93c22.056,0,40-14.352,40-32s-17.944-32-40-32c-22.056,0-40,14.352-40,32S225.944,127.93,248,127.93z
				 M248,79.93c13.008,0,24,7.328,24,16s-10.992,16-24,16s-24-7.328-24-16S234.992,79.93,248,79.93z"/>
			<rect x="304" y="87.93" width="16" height="16"/>
			<rect x="336" y="87.93" width="16" height="16"/>
			<rect x="176" y="87.93" width="16" height="16"/>
			<rect x="144" y="87.93" width="16" height="16"/>
		</g>
	</g>
</g>
<g>
</g>
<g>
</g>
<g>
</g>
<g>
</g>
<g>
</g>
<g>
</g>
<g>
</g>
<g>
</g>
<g>
</g>
<g>
</g>
<g>
</g>
<g>
</g>
<g>
</g>
<g>
</g>
<g>
</g>
</svg>
