<?xml version="1.0" encoding="iso-8859-1"?>
<!-- Generator: Adobe Illustrator 19.0.0, SVG Export Plug-In . SVG Version: 6.00 Build 0)  -->
<svg version="1.1" id="Layer_1" xmlns="http://www.w3.org/2000/svg" xmlns:xlink="http://www.w3.org/1999/xlink" x="0px" y="0px"
	 viewBox="0 0 496 496" style="enable-background:new 0 0 496 496;" xml:space="preserve">
<g>
	<g>
		<g>
			<path d="M456,40H40C17.944,40,0,57.944,0,80v288c0,22.056,17.944,40,40,40h104v32h-32v16h272v-16h-32v-32h104
				c22.056,0,40-17.944,40-40V80C496,57.944,478.056,40,456,40z M336,440H160v-32h176V440z M480,368c0,13.232-10.768,24-24,24H40
				c-13.232,0-24-10.768-24-24v-8h464V368z M480,344H16V80c0-13.232,10.768-24,24-24h416c13.232,0,24,10.768,24,24V344z"/>
			<path d="M32,328h432V72H32V328z M360,88h88v112h-88V88z M360,216h88v96h-88V216z M232,88h112v112H232V88z M344,216v96H160v-96h56
				h16H344z M48,88h168v112H48V88z M48,216h96v96H48V216z"/>
			<path d="M64,184h80v-80H64V184z M80,120h48v48H80V120z"/>
			<path d="M288,104c-22.056,0-40,17.944-40,40c0,22.056,17.944,40,40,40c22.056,0,40-17.944,40-40C328,121.944,310.056,104,288,104
				z M288,168c-13.232,0-24-10.768-24-24s10.768-24,24-24s24,10.768,24,24S301.232,168,288,168z"/>
			<rect x="160" y="104" width="40" height="16"/>
			<rect x="160" y="136" width="40" height="16"/>
			<rect x="160" y="168" width="40" height="16"/>
			<rect x="376" y="104" width="56" height="16"/>
			<rect x="376" y="136" width="56" height="16"/>
			<rect x="376" y="168" width="56" height="16"/>
			<path d="M376,296h56v-64h-56V296z M392,248h24v32h-24V248z"/>
			<path d="M204,280h-28v16h28c15.512,0,28.632-11.104,31.176-26.416l1.424-8.544c1.264-7.552,7.736-13.04,15.4-13.04
				s14.136,5.488,15.4,13.04l1.424,8.552C271.368,284.896,284.488,296,300,296h28v-16h-28c-7.664,0-14.136-5.488-15.4-13.04
				l-1.424-8.552C280.632,243.104,267.512,232,252,232c-15.512,0-28.632,11.104-31.176,26.416l-1.424,8.544
				C218.136,274.512,211.664,280,204,280z"/>
			<path d="M52.688,264L96,307.312L139.312,264L96,220.688L52.688,264z M96,284.688L75.312,264L96,243.312L116.688,264L96,284.688z"
				/>
		</g>
	</g>
</g>
<g>
</g>
<g>
</g>
<g>
</g>
<g>
</g>
<g>
</g>
<g>
</g>
<g>
</g>
<g>
</g>
<g>
</g>
<g>
</g>
<g>
</g>
<g>
</g>
<g>
</g>
<g>
</g>
<g>
</g>
</svg>
