<?xml version="1.0" encoding="iso-8859-1"?>
<!-- Generator: Adobe Illustrator 19.0.0, SVG Export Plug-In . SVG Version: 6.00 Build 0)  -->
<svg version="1.1" id="Layer_1" xmlns="http://www.w3.org/2000/svg" xmlns:xlink="http://www.w3.org/1999/xlink" x="0px" y="0px"
	 viewBox="0 0 496 496" style="enable-background:new 0 0 496 496;" xml:space="preserve">
<g>
	<g>
		<g>
			<path d="M456,64h-24V0H208v64H40C17.944,64,0,81.944,0,104v304c0,22.056,17.944,40,40,40h104v32h-32v16h272v-16h-32v-32h104
				c22.056,0,40-17.944,40-40V104C496,81.944,478.056,64,456,64z M432,112h16v48h-16V112z M224,16h192v144H224V16z M432,176h16v176
				H48V176h160H432z M48,160v-48h160v48H48z M336,480H160v-32h176V480z M480,408c0,13.232-10.768,24-24,24H40
				c-13.232,0-24-10.768-24-24v-8h464V408z M480,384H16V104c0-13.232,10.768-24,24-24h168v16H32v272h432V96h-32V80h24
				c13.232,0,24,10.768,24,24V384z"/>
			<rect x="64" y="128" width="16" height="16"/>
			<rect x="96" y="128" width="16" height="16"/>
			<rect x="128" y="128" width="16" height="16"/>
			<path d="M64,336h368V192H64V336z M80,208h336v112H80V208z"/>
			<path d="M248,224c-22.056,0-40,17.944-40,40c0,22.056,17.944,40,40,40c22.056,0,40-17.944,40-40C288,241.944,270.056,224,248,224
				z M248,288c-13.232,0-24-10.768-24-24s10.768-24,24-24s24,10.768,24,24S261.232,288,248,288z"/>
			<path d="M344,224c-22.056,0-40,17.944-40,40c0,22.056,17.944,40,40,40c22.056,0,40-17.944,40-40C384,241.944,366.056,224,344,224
				z M344,288c-13.232,0-24-10.768-24-24s10.768-24,24-24s24,10.768,24,24S357.232,288,344,288z"/>
			<path d="M152,224c-22.056,0-40,17.944-40,40c0,22.056,17.944,40,40,40c22.056,0,40-17.944,40-40C192,241.944,174.056,224,152,224
				z M152,288c-13.232,0-24-10.768-24-24s10.768-24,24-24s24,10.768,24,24S165.232,288,152,288z"/>
			<path d="M365.416,48h-32.472l-8-16h-33.888l-48,96H240v16h160v-16h-2.584L365.416,48z M260.944,128l40-80h14.112l21.792,43.576
				l14.312-7.16L340.944,64h13.64l25.6,64H260.944z"/>
		</g>
	</g>
</g>
<g>
</g>
<g>
</g>
<g>
</g>
<g>
</g>
<g>
</g>
<g>
</g>
<g>
</g>
<g>
</g>
<g>
</g>
<g>
</g>
<g>
</g>
<g>
</g>
<g>
</g>
<g>
</g>
<g>
</g>
</svg>
