<?xml version="1.0" encoding="iso-8859-1"?>
<!-- Generator: Adobe Illustrator 19.0.0, SVG Export Plug-In . SVG Version: 6.00 Build 0)  -->
<svg version="1.1" id="Layer_1" xmlns="http://www.w3.org/2000/svg" xmlns:xlink="http://www.w3.org/1999/xlink" x="0px" y="0px"
	 viewBox="0 0 496 496" style="enable-background:new 0 0 496 496;" xml:space="preserve">
<g>
	<g>
		<g>
			<path d="M456,40H40C17.944,40,0,57.944,0,80v288c0,22.056,17.944,40,40,40h104v32h-32v16h272v-16h-32v-32h104
				c22.056,0,40-17.944,40-40V80C496,57.944,478.056,40,456,40z M40,392c-13.232,0-24-10.768-24-24v-8h200v32H40z M336,440H160v-32
				h60.448c5.552,9.52,15.76,16,27.552,16s22-6.48,27.552-16H336V440z M232,264h-8h-8v-16h24h16h24v16h-8h-8H232z M264,280v112
				c0,8.824-7.176,16-16,16c-8.824,0-16-7.176-16-16V280H264z M480,368c0,13.232-10.768,24-24,24H280v-32h200V368z M480,344H280v-64
				h16v-48h-40v-16c0-8.824-7.176-16-16-16H104v-64h16v48h256V72H120v48h-16c-8.824,0-16,7.176-16,16v64c0,8.824,7.176,16,16,16h136
				v16h-40v48h16v64H16V80c0-13.232,10.768-24,24-24h416c13.232,0,24,10.768,24,24V344z M136,136V88h224v48h-16v16h16v16H136v-16
				h192v-16H136z"/>
			<path d="M360,304c0,4.408-3.584,8-8,8c-4.416,0-8-3.592-8-8v-24h-8c-4.416,0-8-3.592-8-8v-40h-16v40
				c0,10.432,6.688,19.328,16,22.632V304c0,13.232,10.768,24,24,24s24-10.768,24-24V200h-16V304z"/>
			<path d="M144,328c13.232,0,24-10.768,24-24v-41.368c9.312-3.304,16-12.2,16-22.632v-8h-16v8c0,4.408-3.584,8-8,8h-8v56
				c0,4.408-3.584,8-8,8s-8-3.592-8-8v-72h-16v72C120,317.232,130.768,328,144,328z"/>
		</g>
	</g>
</g>
<g>
</g>
<g>
</g>
<g>
</g>
<g>
</g>
<g>
</g>
<g>
</g>
<g>
</g>
<g>
</g>
<g>
</g>
<g>
</g>
<g>
</g>
<g>
</g>
<g>
</g>
<g>
</g>
<g>
</g>
</svg>
