<?xml version="1.0" encoding="iso-8859-1"?>
<!-- Generator: Adobe Illustrator 19.0.0, SVG Export Plug-In . SVG Version: 6.00 Build 0)  -->
<svg version="1.1" id="Layer_1" xmlns="http://www.w3.org/2000/svg" xmlns:xlink="http://www.w3.org/1999/xlink" x="0px" y="0px"
	 viewBox="0 0 496 496" style="enable-background:new 0 0 496 496;" xml:space="preserve">
<g>
	<g>
		<g>
			<path d="M456,0H40C17.944,0,0,17.944,0,40v288c0,22.056,17.944,40,40,40h104v32h-32v16h96v40c0,22.056,17.944,40,40,40
				c22.056,0,40-17.944,40-40v-40h96v-16h-32v-32h104c22.056,0,40-17.944,40-40V40C496,17.944,478.056,0,456,0z M208,400h-48v-32h48
				V400z M272,456c0,13.232-10.768,24-24,24s-24-10.768-24-24V320h48V456z M272,304h-48v-18.336c7.784,1.488,15.792,2.336,24,2.336
				s16.216-0.848,24-2.336V304z M248,272c-61.76,0-112-50.24-112-112S186.24,48,248,48s112,50.24,112,112S309.76,272,248,272z
				 M336,400h-48v-32h48V400z M480,304H320v16h160v8c0,13.232-10.768,24-24,24H288v-32h16v-16h-16v-22.488
				C339.032,264.664,376,216.6,376,160c0-70.576-57.424-128-128-128S120,89.424,120,160c0,56.6,36.968,104.664,88,121.512V304h-16
				v16h16v32H40c-13.232,0-24-10.768-24-24v-8h160v-16H16V40c0-13.232,10.768-24,24-24h416c13.232,0,24,10.768,24,24V304z"/>
			<path d="M248,72c-48.52,0-88,39.48-88,88s39.48,88,88,88s88-39.48,88-88S296.52,72,248,72z M248,232c-39.696,0-72-32.304-72-72
				s32.304-72,72-72s72,32.304,72,72S287.696,232,248,232z"/>
			<rect x="392" y="152" width="16" height="16"/>
			<rect x="424" y="152" width="16" height="16"/>
			<rect x="56" y="152" width="16" height="16"/>
			<rect x="88" y="152" width="16" height="16"/>
		</g>
	</g>
</g>
<g>
</g>
<g>
</g>
<g>
</g>
<g>
</g>
<g>
</g>
<g>
</g>
<g>
</g>
<g>
</g>
<g>
</g>
<g>
</g>
<g>
</g>
<g>
</g>
<g>
</g>
<g>
</g>
<g>
</g>
</svg>
