<?xml version="1.0" encoding="iso-8859-1"?>
<!-- Generator: Adobe Illustrator 19.0.0, SVG Export Plug-In . SVG Version: 6.00 Build 0)  -->
<svg version="1.1" id="Layer_1" xmlns="http://www.w3.org/2000/svg" xmlns:xlink="http://www.w3.org/1999/xlink" x="0px" y="0px"
	 viewBox="0 0 496 496" style="enable-background:new 0 0 496 496;" xml:space="preserve">
<g>
	<g>
		<g>
			<path d="M456,144h-72v16h32v320H64V160h32v-16H40c-22.056,0-40,17.944-40,40v272c0,22.056,17.944,40,40,40h416
				c22.056,0,40-17.944,40-40V184C496,161.944,478.056,144,456,144z M48,480h-8c-13.232,0-24-10.768-24-24V184
				c0-13.232,10.768-24,24-24h8V480z M480,456c0,13.232-10.768,24-24,24h-24V160h24c13.232,0,24,10.768,24,24V456z"/>
			<rect x="448" y="288" width="16" height="64"/>
			<path d="M96,192v16h16v216c0,13.232,10.768,24,24,24h208c13.232,0,24-10.768,24-24V208h16v-16h-32V53.192l-40-50l-40,50V192h-16
				V71.792c9.656-7.304,16-18.776,16-31.792c0-22.056-17.944-40-40-40c-22.056,0-40,17.944-40,40c0,13.016,6.344,24.488,16,31.792
				v101.816l-50.832-159.76L70,42.904L117.088,192H96z M312,28.808L327.36,48h-30.72L312,28.808z M336,64v128h-16V64H336z M288,64
				h16v128h-16V64z M232,16c13.232,0,24,10.768,24,24s-10.768,24-24,24s-24-10.768-24-24S218.768,16,232,16z M240,79.192V192h-16
				V79.192c2.584,0.528,5.264,0.808,8,0.808C234.736,80,237.416,79.72,240,79.192z M352,208v216c0,4.408-3.584,8-8,8H136
				c-4.416,0-8-3.592-8-8V208H352z M90,53.096l56.832-18.944L197.056,192h-63.2L90,53.096z"/>
			
				<rect x="108.005" y="63.358" transform="matrix(0.9486 -0.3165 0.3165 0.9486 -18.0924 40.6212)" width="15.992" height="25.296"/>
			
				<rect x="123.998" y="111.362" transform="matrix(0.9486 -0.3165 0.3165 0.9486 -32.4636 48.1509)" width="15.992" height="25.296"/>
			
				<rect x="140" y="159.359" transform="matrix(-0.9486 0.3165 -0.3165 -0.9486 342.8234 288.3321)" width="15.992" height="25.296"/>
			<path d="M336,232H144v96h192V232z M320,312H160v-64h160V312z"/>
			<rect x="264" y="344" width="72" height="16"/>
		</g>
	</g>
</g>
<g>
</g>
<g>
</g>
<g>
</g>
<g>
</g>
<g>
</g>
<g>
</g>
<g>
</g>
<g>
</g>
<g>
</g>
<g>
</g>
<g>
</g>
<g>
</g>
<g>
</g>
<g>
</g>
<g>
</g>
</svg>
