<?xml version="1.0" encoding="iso-8859-1"?>
<!-- Generator: Adobe Illustrator 19.0.0, SVG Export Plug-In . SVG Version: 6.00 Build 0)  -->
<svg version="1.1" id="Layer_1" xmlns="http://www.w3.org/2000/svg" xmlns:xlink="http://www.w3.org/1999/xlink" x="0px" y="0px"
	 viewBox="0 0 496 496" style="enable-background:new 0 0 496 496;" xml:space="preserve">
<g>
	<g>
		<g>
			<rect x="96" y="384" width="64" height="16"/>
			<path d="M468,280c-4.832,0-9.384,1.232-13.352,3.392C451.008,272.152,440.44,264,428,264c-7.832,0-14.912,3.224-20,8.424
				c-5.088-5.2-12.168-8.424-20-8.424c-4.296,0-8.36,0.976-12,2.704v-83.048c14.88-9.52,24-25.776,24-43.656
				c0-28.672-23.328-52-52-52s-52,23.328-52,52c0,17.888,9.12,34.136,24,43.656V280h-5.576c-8.4,0-16.536,2.464-23.528,7.128
				c-11.832,7.88-18.896,21.08-18.896,35.296v76.608c0,13.08,5.096,25.376,14.344,34.624c6.224,6.224,9.656,14.512,9.656,23.312V496
				h16v-39.032c0-13.08-5.096-25.376-14.344-34.624c-6.224-6.224-9.656-14.512-9.656-23.312v-76.608
				c0-8.856,4.4-17.072,11.768-21.984c4.352-2.904,9.424-4.44,14.656-4.44H320v48h16V156c0-6.616,5.384-12,12-12
				c6.616,0,12,5.384,12,12v156h16v-20c0-6.616,5.384-12,12-12c6.616,0,12,5.384,12,12v20h16v-20c0-6.616,5.384-12,12-12
				c6.616,0,12,5.384,12,12v20h16v-4c0-6.616,5.384-12,12-12c6.616,0,12,5.384,12,12v84.112c0,4.208-0.792,8.336-2.36,12.24
				l-10.144,25.352c-2.32,5.808-3.496,11.936-3.496,18.184V496h16v-48.112c0-4.208,0.792-8.336,2.36-12.24l10.144-25.352
				c2.32-5.808,3.496-11.936,3.496-18.184V308C496,292.56,483.44,280,468,280z M348,128c-15.44,0-28,12.56-28,28v6.6
				c-5.096-6.28-8-14.192-8-22.6c0-19.848,16.152-36,36-36c19.848,0,36,16.152,36,36c0,8.408-2.904,16.32-8,22.6V156
				C376,140.56,363.44,128,348,128z"/>
			<path d="M280,128h-24V40c0-22.056-17.944-40-40-40H40C17.944,0,0,17.944,0,40v352c0,22.056,17.944,40,40,40h176
				c22.056,0,40-17.944,40-40V144h24V128z M240,392c0,13.232-10.768,24-24,24H40c-13.232,0-24-10.768-24-24v-24h224V392z M240,128
				h-16V80H32v216h192V144h16v208H16V64h224V128z M136,168v-24h72v136H48V96h160v32h-88v40H136z M240,48H16v-8
				c0-13.232,10.768-24,24-24h176c13.232,0,24,10.768,24,24V48z"/>
			<rect x="64" y="184" width="128" height="16"/>
			<rect x="64" y="216" width="128" height="16"/>
			<rect x="64" y="248" width="128" height="16"/>
		</g>
	</g>
</g>
<g>
</g>
<g>
</g>
<g>
</g>
<g>
</g>
<g>
</g>
<g>
</g>
<g>
</g>
<g>
</g>
<g>
</g>
<g>
</g>
<g>
</g>
<g>
</g>
<g>
</g>
<g>
</g>
<g>
</g>
</svg>
