<?xml version="1.0" encoding="iso-8859-1"?>
<!-- Generator: Adobe Illustrator 19.0.0, SVG Export Plug-In . SVG Version: 6.00 Build 0)  -->
<svg version="1.1" id="Layer_1" xmlns="http://www.w3.org/2000/svg" xmlns:xlink="http://www.w3.org/1999/xlink" x="0px" y="0px"
	 viewBox="0 0 496 496" style="enable-background:new 0 0 496 496;" xml:space="preserve">
<g>
	<g>
		<g>
			<rect x="112" y="448" width="56" height="16"/>
			<path d="M440,296v-40c0-13.232-10.768-24-24-24H280v-32.64c27.088-3.904,48-27.208,48-55.36c0-28.152-20.912-51.456-48-55.36V40
				c0-22.056-17.944-40-40-40H40C17.944,0,0,17.944,0,40v416c0,22.056,17.944,40,40,40h200c22.056,0,40-17.944,40-40v-64h56v-96h-56
				v-48h136c4.416,0,8,3.592,8,8v40h-56v96h128v-96H440z M16,40c0-13.232,10.768-24,24-24h200c13.232,0,24,10.768,24,24v8H16V40z
				 M264,456c0,13.232-10.768,24-24,24H40c-13.232,0-24-10.768-24-24v-24h248V456z M264,416H16V64h248v24.64
				c-27.088,3.904-48,27.208-48,55.36s20.912,51.456,48,55.36V232H128c-13.232,0-24,10.768-24,24v40H48v96h128v-96h-56v-40
				c0-4.408,3.584-8,8-8h136v48h-56v96h56V416z M160,312v64H64v-64H160z M320,312v64h-96v-64H320z M272,184
				c-22.056,0-40-17.944-40-40c0-22.056,17.944-40,40-40c22.056,0,40,17.944,40,40C312,166.056,294.056,184,272,184z M480,376h-96
				v-64h96V376z"/>
			<rect x="296" y="200" width="16" height="16"/>
			<rect x="328" y="200" width="16" height="16"/>
			<rect x="360" y="200" width="16" height="16"/>
			<rect x="168" y="200" width="16" height="16"/>
			<rect x="200" y="200" width="16" height="16"/>
			<rect x="232" y="200" width="16" height="16"/>
		</g>
	</g>
</g>
<g>
</g>
<g>
</g>
<g>
</g>
<g>
</g>
<g>
</g>
<g>
</g>
<g>
</g>
<g>
</g>
<g>
</g>
<g>
</g>
<g>
</g>
<g>
</g>
<g>
</g>
<g>
</g>
<g>
</g>
</svg>
