<?xml version="1.0" encoding="iso-8859-1"?>
<!-- Generator: Adobe Illustrator 19.0.0, SVG Export Plug-In . SVG Version: 6.00 Build 0)  -->
<svg version="1.1" id="Layer_1" xmlns="http://www.w3.org/2000/svg" xmlns:xlink="http://www.w3.org/1999/xlink" x="0px" y="0px"
	 viewBox="0 0 496 496" style="enable-background:new 0 0 496 496;" xml:space="preserve">
<g>
	<g>
		<g>
			<path d="M456,144h-56v-32H288c0-23.736-17.336-43.448-40-47.28V0h-16v64.72c-22.664,3.824-40,23.536-40,47.28H80v32H40
				c-22.056,0-40,17.944-40,40v272c0,22.056,17.944,40,40,40h416c22.056,0,40-17.944,40-40V184C496,161.944,478.056,144,456,144z
				 M240,80c17.648,0,32,14.352,32,32s-14.352,32-32,32s-32-14.352-32-32S222.352,80,240,80z M232,240v24h-41.44l30.368-107.976
				C226.776,158.568,233.224,160,240,160s13.224-1.432,19.072-3.976L289.44,264H248v-24H232z M96,128h98.8
				c2.544,7.168,6.728,13.552,12.128,18.704L136.296,397.84l15.408,4.328L186.064,280H232v24h16v-24h45.936l34.36,122.168
				l15.408-4.328l-70.632-251.136c5.4-5.144,9.584-11.536,12.128-18.704H384v304H96V128z M48,480h-8c-13.232,0-24-10.768-24-24V184
				c0-13.232,10.768-24,24-24h8V480z M416,480H64V160h16v288h320V160h16V480z M480,456c0,13.232-10.768,24-24,24h-24V160h24
				c13.232,0,24,10.768,24,24V456z"/>
			<rect x="448" y="288" width="16" height="64"/>
			<rect x="352" y="208" width="16" height="16"/>
			<rect x="320" y="208" width="16" height="16"/>
			<rect x="144" y="208" width="16" height="16"/>
			<rect x="112" y="208" width="16" height="16"/>
		</g>
	</g>
</g>
<g>
</g>
<g>
</g>
<g>
</g>
<g>
</g>
<g>
</g>
<g>
</g>
<g>
</g>
<g>
</g>
<g>
</g>
<g>
</g>
<g>
</g>
<g>
</g>
<g>
</g>
<g>
</g>
<g>
</g>
</svg>
