<?xml version="1.0" encoding="iso-8859-1"?>
<!-- Generator: Adobe Illustrator 19.0.0, SVG Export Plug-In . SVG Version: 6.00 Build 0)  -->
<svg version="1.1" id="Layer_1" xmlns="http://www.w3.org/2000/svg" xmlns:xlink="http://www.w3.org/1999/xlink" x="0px" y="0px"
	 viewBox="0 0 496 496" style="enable-background:new 0 0 496 496;" xml:space="preserve">
<g>
	<g>
		<g>
			<rect x="216" y="448" width="64" height="16"/>
			<path d="M392,95.888V40c0-22.056-17.944-40-40-40H144c-22.056,0-40,17.944-40,40v120h16V64h256v27.456
				C365.672,89.232,354.984,88,344,88c-83.816,0-152,68.184-152,152s68.184,152,152,152c10.984,0,21.672-1.232,32-3.456V416H120v-96
				h-16v136c0,22.056,17.944,40,40,40h208c22.056,0,40-17.944,40-40v-71.888c60.336-20.16,104-77.08,104-144.112
				S452.336,116.048,392,95.888z M319.592,106.312c-12.808,12.728-29.024,32.712-40.672,59.992
				c-17.744-5.672-29.88-12.464-36.32-16.616C262.368,127.512,289.2,111.848,319.592,106.312z M232.544,162.28
				c7.056,4.744,20.64,12.64,40.728,19.12c-4.88,15.008-8.152,31.864-8.912,50.6H208.4
				C209.912,206.176,218.56,182.272,232.544,162.28z M232.552,317.712c-13.984-19.992-22.632-43.896-24.144-69.72h55.952V248
				c0.76,18.736,4.024,35.592,8.92,50.592C253.192,305.072,239.608,312.968,232.552,317.712z M242.6,330.312
				c6.44-4.16,18.576-10.944,36.32-16.616c11.648,27.28,27.864,47.264,40.672,59.992C289.2,368.144,262.368,352.48,242.6,330.312z
				 M336,367.08c-11.656-10.744-28.992-29.976-41.328-57.648c11.968-2.736,25.76-4.696,41.328-5.224V367.08z M336,288.208
				c-17.904,0.552-33.624,2.864-47.152,6.088c-4.6-13.736-7.704-29.176-8.48-46.296H336V288.208z M336,232h-55.632
				c0.776-17.104,3.896-32.544,8.52-46.288c13.52,3.216,29.232,5.52,47.112,6.08V232z M336,175.792
				c-15.544-0.52-29.32-2.48-41.272-5.216c12.336-27.592,29.632-46.824,41.272-57.6V175.792z M376,456c0,13.232-10.768,24-24,24H144
				c-13.232,0-24-10.768-24-24v-24h256V456z M455.448,162.288c13.984,19.992,22.632,43.896,24.144,69.72H423.64V232
				c-0.76-18.736-4.024-35.592-8.92-50.592C434.808,174.928,448.392,167.032,455.448,162.288z M120,48v-8c0-13.232,10.768-24,24-24
				h208c13.232,0,24,10.768,24,24v8H120z M445.4,149.688c-6.448,4.16-18.576,10.944-36.32,16.616
				c-11.648-27.28-27.864-47.264-40.672-59.992C398.8,111.848,425.632,127.512,445.4,149.688z M352,112.92
				c11.656,10.744,28.992,29.976,41.328,57.648c-11.968,2.736-25.76,4.696-41.328,5.224V112.92z M352,191.792
				c17.904-0.552,33.624-2.864,47.152-6.088c4.6,13.736,7.704,29.176,8.48,46.296H352V191.792z M352,248h55.632
				c-0.776,17.104-3.896,32.544-8.52,46.288c-13.52-3.216-29.232-5.52-47.112-6.08V248z M352,367.032v-62.816
				c15.544,0.52,29.32,2.48,41.272,5.216C380.936,337.016,363.632,356.256,352,367.032z M368.408,373.688
				c12.808-12.728,29.024-32.704,40.672-59.992c17.744,5.672,29.88,12.456,36.32,16.616
				C425.632,352.48,398.8,368.144,368.408,373.688z M414.728,298.6c4.88-15.008,8.152-31.864,8.912-50.6h55.96
				c-1.512,25.824-10.16,49.728-24.144,69.72C448.4,312.976,434.816,305.08,414.728,298.6z"/>
			<polygon points="109.656,309.656 179.312,240 109.656,170.344 98.344,181.656 148.688,232 32,232 32,248 148.688,248 
				98.344,298.344 			"/>
			<rect y="232" width="16" height="16"/>
		</g>
	</g>
</g>
<g>
</g>
<g>
</g>
<g>
</g>
<g>
</g>
<g>
</g>
<g>
</g>
<g>
</g>
<g>
</g>
<g>
</g>
<g>
</g>
<g>
</g>
<g>
</g>
<g>
</g>
<g>
</g>
<g>
</g>
</svg>
