<?xml version="1.0" encoding="iso-8859-1"?>
<!-- Generator: Adobe Illustrator 19.0.0, SVG Export Plug-In . SVG Version: 6.00 Build 0)  -->
<svg version="1.1" id="Layer_1" xmlns="http://www.w3.org/2000/svg" xmlns:xlink="http://www.w3.org/1999/xlink" x="0px" y="0px"
	 viewBox="0 0 496 496" style="enable-background:new 0 0 496 496;" xml:space="preserve">
<g>
	<g>
		<g>
			<rect x="144" y="448" width="64" height="16"/>
			<path d="M472,112H352V40c0-22.056-17.944-40-40-40H40C17.944,0,0,17.944,0,40v416c0,22.056,17.944,40,40,40h240h192
				c13.232,0,24-10.768,24-24V136C496,122.768,485.232,112,472,112z M16,40c0-13.232,10.768-24,24-24h272c13.232,0,24,10.768,24,24
				v8H16V40z M16,64h320v48h-16V80H32v192h224v16h-80v16h80v16h-80v16h80v16h-80v16h80v16h-80v16h80v16H16V64z M40,480
				c-13.232,0-24-10.768-24-24v-24h240v40c0,2.816,0.576,5.488,1.472,8H40z M256,136v120H48V96h256v16h-24
				C266.768,112,256,122.768,256,136z M480,472c0,4.408-3.592,8-8,8H280c-4.408,0-8-3.592-8-8v-24h208V472z M480,432H272V176h208
				V432z M480,160H272v-24c0-4.408,3.592-8,8-8h192c4.408,0,8,3.592,8,8V160z"/>
			<path d="M176,112c-35.288,0-64,28.712-64,64c0,35.288,28.712,64,64,64c35.288,0,64-28.712,64-64C240,140.712,211.288,112,176,112
				z M176,224c-26.472,0-48-21.528-48-48s21.528-48,48-48s48,21.528,48,48S202.472,224,176,224z"/>
			<path d="M32,400h128V288H32V400z M48,304h96v80H48V304z"/>
			<path d="M464,192H288v128h176V192z M448,304H304v-96h144V304z"/>
			<path d="M376,288c17.648,0,32-14.352,32-32s-14.352-32-32-32s-32,14.352-32,32S358.352,288,376,288z M376,240
				c8.824,0,16,7.176,16,16c0,8.824-7.176,16-16,16c-8.824,0-16-7.176-16-16C360,247.176,367.176,240,376,240z"/>
			<path d="M368,336h-80v80h80V336z M352,400h-48v-48h48V400z"/>
			<rect x="384" y="336" width="80" height="16"/>
			<rect x="384" y="368" width="80" height="16"/>
			<rect x="384" y="400" width="80" height="16"/>
		</g>
	</g>
</g>
<g>
</g>
<g>
</g>
<g>
</g>
<g>
</g>
<g>
</g>
<g>
</g>
<g>
</g>
<g>
</g>
<g>
</g>
<g>
</g>
<g>
</g>
<g>
</g>
<g>
</g>
<g>
</g>
<g>
</g>
</svg>
