<?xml version="1.0" encoding="iso-8859-1"?>
<!-- Generator: Adobe Illustrator 19.0.0, SVG Export Plug-In . SVG Version: 6.00 Build 0)  -->
<svg version="1.1" id="Layer_1" xmlns="http://www.w3.org/2000/svg" xmlns:xlink="http://www.w3.org/1999/xlink" x="0px" y="0px"
	 viewBox="0 0 496 496" style="enable-background:new 0 0 496 496;" xml:space="preserve">
<g>
	<g>
		<g>
			<path d="M456,64H40C17.944,64,0,81.944,0,104v288c0,22.056,17.944,40,40,40h416c22.056,0,40-17.944,40-40V104
				C496,81.944,478.056,64,456,64z M48,416h-8c-13.232,0-24-10.768-24-24V104c0-13.232,10.768-24,24-24h8V416z M416,416H64V80h352
				V416z M480,392c0,13.232-10.768,24-24,24h-24V80h24c13.232,0,24,10.768,24,24V392z"/>
			<rect x="448" y="216" width="16" height="64"/>
			<path d="M160,240c39.704,0,72-32.296,72-72s-32.296-72-72-72s-72,32.296-72,72S120.296,240,160,240z M160,112
				c30.872,0,56,25.128,56,56s-25.128,56-56,56s-56-25.128-56-56S129.128,112,160,112z"/>
			<path d="M320,240c39.704,0,72-32.296,72-72s-32.296-72-72-72c-39.704,0-72,32.296-72,72S280.296,240,320,240z M320,112
				c30.872,0,56,25.128,56,56s-25.128,56-56,56s-56-25.128-56-56S289.128,112,320,112z"/>
			<path d="M160,400c39.704,0,72-32.296,72-72c0-39.704-32.296-72-72-72s-72,32.296-72,72C88,367.704,120.296,400,160,400z M160,272
				c30.872,0,56,25.128,56,56s-25.128,56-56,56s-56-25.128-56-56S129.128,272,160,272z"/>
			<path d="M320,400c39.704,0,72-32.296,72-72c0-39.704-32.296-72-72-72c-39.704,0-72,32.296-72,72C248,367.704,280.296,400,320,400
				z M360,288.88c9.88,10.112,16,23.904,16,39.12s-6.12,29.008-16,39.112V288.88z M320.008,384c-15.208,0-29.016-6.12-39.12-16
				h78.232C349.016,377.88,335.216,384,320.008,384z M320,339.312l24-24V352h-48v-36.688L320,339.312z M307.312,304h25.376
				L320,316.688L307.312,304z M319.992,272c15.208,0,29.016,6.12,39.12,16H280.88C290.984,278.12,304.784,272,319.992,272z
				 M280,288.888v78.232c-9.88-10.104-16-23.904-16-39.112S270.12,298.992,280,288.888z"/>
			<polygon points="152,208 168,208 168,184 184,184 184,168 168,168 168,144 192,144 192,128 152,128 152,168 136,168 136,184 
				152,184 			"/>
			<path d="M312,184h20c15.44,0,28-12.56,28-28s-12.56-28-28-28h-36v80h16V184z M312,144h20c6.616,0,12,5.384,12,12
				c0,6.616-5.384,12-12,12h-20V144z"/>
			<path d="M136,281.056v93.888L206.424,328L136,281.056z M152,310.944L177.576,328L152,345.056V310.944z"/>
		</g>
	</g>
</g>
<g>
</g>
<g>
</g>
<g>
</g>
<g>
</g>
<g>
</g>
<g>
</g>
<g>
</g>
<g>
</g>
<g>
</g>
<g>
</g>
<g>
</g>
<g>
</g>
<g>
</g>
<g>
</g>
<g>
</g>
</svg>
