<?xml version="1.0" encoding="iso-8859-1"?>
<!-- Generator: Adobe Illustrator 19.0.0, SVG Export Plug-In . SVG Version: 6.00 Build 0)  -->
<svg version="1.1" id="Layer_1" xmlns="http://www.w3.org/2000/svg" xmlns:xlink="http://www.w3.org/1999/xlink" x="0px" y="0px"
	 viewBox="0 0 496 496" style="enable-background:new 0 0 496 496;" xml:space="preserve">
<g>
	<g>
		<g>
			<path d="M352,0H144c-22.056,0-40,17.944-40,40v416c0,22.056,17.944,40,40,40h208c22.056,0,40-17.944,40-40V40
				C392,17.944,374.056,0,352,0z M376,456c0,13.232-10.768,24-24,24H144c-13.232,0-24-10.768-24-24v-24h256V456z M376,416H120V64
				h256V416z M376,48H120v-8c0-13.232,10.768-24,24-24h208c13.232,0,24,10.768,24,24V48z"/>
			<rect x="216" y="448" width="64" height="16"/>
			<path d="M360,80H136v128h224V80z M344,192H152V96h192V192z"/>
			<path d="M264,224H136v112h128V224z M248,320h-96v-80h96V320z"/>
			<rect x="280" y="224" width="80" height="16"/>
			<rect x="280" y="256" width="80" height="16"/>
			<rect x="280" y="288" width="80" height="16"/>
			<rect x="280" y="320" width="80" height="16"/>
			<rect x="136" y="352" width="224" height="16"/>
			<rect x="136" y="384" width="192" height="16"/>
			<rect x="344" y="384" width="16" height="16"/>
			<path d="M328,160h-12.16l-32-40H250l-6-8h-23.744l-40,48H168v16h160V160z M201.08,160l26.664-32H236l21.6,28.8l12.8-9.6L262,136
				h14.16l19.2,24H201.08z"/>
			<path d="M200,312c17.648,0,32-14.352,32-32s-14.352-32-32-32s-32,14.352-32,32S182.352,312,200,312z M200,264
				c8.824,0,16,7.176,16,16c0,8.824-7.176,16-16,16c-8.824,0-16-7.176-16-16C184,271.176,191.176,264,200,264z"/>
		</g>
	</g>
</g>
<g>
</g>
<g>
</g>
<g>
</g>
<g>
</g>
<g>
</g>
<g>
</g>
<g>
</g>
<g>
</g>
<g>
</g>
<g>
</g>
<g>
</g>
<g>
</g>
<g>
</g>
<g>
</g>
<g>
</g>
</svg>
