<?xml version="1.0" encoding="iso-8859-1"?>
<!-- Generator: Adobe Illustrator 19.0.0, SVG Export Plug-In . SVG Version: 6.00 Build 0)  -->
<svg version="1.1" id="Layer_1" xmlns="http://www.w3.org/2000/svg" xmlns:xlink="http://www.w3.org/1999/xlink" x="0px" y="0px"
	 viewBox="0 0 496 496" style="enable-background:new 0 0 496 496;" xml:space="preserve">
<g>
	<g>
		<g>
			<path d="M352,0H144c-22.056,0-40,17.944-40,40v416c0,22.056,17.944,40,40,40h208c22.056,0,40-17.944,40-40V40
				C392,17.944,374.056,0,352,0z M376,456c0,13.232-10.768,24-24,24H144c-13.232,0-24-10.768-24-24v-24h256V456z M376,416H120V64
				h256V416z M376,48H120v-8c0-13.232,10.768-24,24-24h208c13.232,0,24,10.768,24,24V48z"/>
			<rect x="216" y="448" width="64" height="16"/>
			<polygon points="160,400 176,400 176,120 200,120 200,104 176,104 176,80 160,80 160,104 136,104 136,120 160,120 			"/>
			<polygon points="240,400 256,400 256,272 280,272 280,256 256,256 256,80 240,80 240,256 216,256 216,272 240,272 			"/>
			<polygon points="320,400 336,400 336,192 360,192 360,176 336,176 336,80 320,80 320,176 296,176 296,192 320,192 			"/>
		</g>
	</g>
</g>
<g>
</g>
<g>
</g>
<g>
</g>
<g>
</g>
<g>
</g>
<g>
</g>
<g>
</g>
<g>
</g>
<g>
</g>
<g>
</g>
<g>
</g>
<g>
</g>
<g>
</g>
<g>
</g>
<g>
</g>
</svg>
