<?xml version="1.0" encoding="iso-8859-1"?>
<!-- Generator: Adobe Illustrator 19.0.0, SVG Export Plug-In . SVG Version: 6.00 Build 0)  -->
<svg version="1.1" id="Layer_1" xmlns="http://www.w3.org/2000/svg" xmlns:xlink="http://www.w3.org/1999/xlink" x="0px" y="0px"
	 viewBox="0 0 496 496" style="enable-background:new 0 0 496 496;" xml:space="preserve">
<g>
	<g>
		<g>
			<path d="M456,144h-56V0H80v144H40c-22.056,0-40,17.944-40,40v272c0,22.056,17.944,40,40,40h416c22.056,0,40-17.944,40-40V184
				C496,161.944,478.056,144,456,144z M96,16h288v432H96V16z M48,480h-8c-13.232,0-24-10.768-24-24V184c0-13.232,10.768-24,24-24h8
				V480z M416,480H64V160h16v304h320V160h16V480z M480,456c0,13.232-10.768,24-24,24h-24V160h24c13.232,0,24,10.768,24,24V456z"/>
			<rect x="448" y="288" width="16" height="64"/>
			<path d="M264,68.688V32h-48v36.688L148.688,136H112v48h36.688L216,251.312V288h48v-36.688L331.312,184H368v-48h-36.688
				L264,68.688z M144,168h-16v-16h16V168z M232,48h16v16h-16V48z M248,272h-16v-16h16V272z M320,172.688L252.688,240h-25.376
				L160,172.688v-25.376L227.312,80h25.376L320,147.312V172.688z M336,152h16v16h-16V152z"/>
			<rect x="128" y="48" width="16" height="16"/>
			<rect x="160" y="48" width="16" height="16"/>
			<rect x="128" y="80" width="16" height="16"/>
			<rect x="336" y="48" width="16" height="16"/>
			<rect x="304" y="48" width="16" height="16"/>
			<rect x="336" y="80" width="16" height="16"/>
			<rect x="128" y="256" width="16" height="16"/>
			<rect x="160" y="256" width="16" height="16"/>
			<rect x="128" y="224" width="16" height="16"/>
			<rect x="336" y="256" width="16" height="16"/>
			<rect x="304" y="256" width="16" height="16"/>
			<rect x="336" y="224" width="16" height="16"/>
			<rect x="112" y="320" width="256" height="16"/>
			<rect x="112" y="352" width="256" height="16"/>
			<rect x="112" y="384" width="256" height="16"/>
			<rect x="112" y="416" width="256" height="16"/>
		</g>
	</g>
</g>
<g>
</g>
<g>
</g>
<g>
</g>
<g>
</g>
<g>
</g>
<g>
</g>
<g>
</g>
<g>
</g>
<g>
</g>
<g>
</g>
<g>
</g>
<g>
</g>
<g>
</g>
<g>
</g>
<g>
</g>
</svg>
