<?xml version="1.0" encoding="iso-8859-1"?>
<!-- Generator: Adobe Illustrator 19.0.0, SVG Export Plug-In . SVG Version: 6.00 Build 0)  -->
<svg version="1.1" id="Layer_1" xmlns="http://www.w3.org/2000/svg" xmlns:xlink="http://www.w3.org/1999/xlink" x="0px" y="0px"
	 viewBox="0 0 496 496" style="enable-background:new 0 0 496 496;" xml:space="preserve">
<g>
	<g>
		<g>
			<path d="M352,0H144c-22.056,0-40,17.944-40,40v416c0,22.056,17.944,40,40,40h208c22.056,0,40-17.944,40-40V40
				C392,17.944,374.056,0,352,0z M120,320h72v96h-72V320z M376,456c0,13.232-10.768,24-24,24H144c-13.232,0-24-10.768-24-24v-24h256
				V456z M208,416v-96h80v96H208z M376,416h-72v-96h72V416z M376,304H120V128h256V304z M376,112H120V64h256V112z M376,48H120v-8
				c0-13.232,10.768-24,24-24h208c13.232,0,24,10.768,24,24V48z"/>
			<rect x="216" y="448" width="64" height="16"/>
			<rect x="136" y="80" width="16" height="16"/>
			<rect x="168" y="80" width="16" height="16"/>
			<rect x="200" y="80" width="16" height="16"/>
			<path d="M264,144H136v144h128V144z M248,272h-96V160h96V272z"/>
			<rect x="280" y="144" width="80" height="16"/>
			<rect x="280" y="176" width="80" height="16"/>
			<rect x="280" y="208" width="80" height="16"/>
			<rect x="280" y="240" width="80" height="16"/>
			<rect x="280" y="272" width="80" height="16"/>
		</g>
	</g>
</g>
<g>
</g>
<g>
</g>
<g>
</g>
<g>
</g>
<g>
</g>
<g>
</g>
<g>
</g>
<g>
</g>
<g>
</g>
<g>
</g>
<g>
</g>
<g>
</g>
<g>
</g>
<g>
</g>
<g>
</g>
</svg>
