<?xml version="1.0" encoding="iso-8859-1"?>
<!-- Generator: Adobe Illustrator 19.0.0, SVG Export Plug-In . SVG Version: 6.00 Build 0)  -->
<svg version="1.1" id="Layer_1" xmlns="http://www.w3.org/2000/svg" xmlns:xlink="http://www.w3.org/1999/xlink" x="0px" y="0px"
	 viewBox="0 0 496 496" style="enable-background:new 0 0 496 496;" xml:space="preserve">
<g>
	<g>
		<g>
			<path d="M456,144h-56V76.688L323.312,0H80v144H40c-22.056,0-40,17.944-40,40v272c0,22.056,17.944,40,40,40h416
				c22.056,0,40-17.944,40-40V184C496,161.944,478.056,144,456,144z M328,27.312L372.688,72H328V27.312z M352,88v120H128V48h184v40
				H352z M96,16h216v16H112v192h256V88h16v344H96V16z M48,480h-8c-13.232,0-24-10.768-24-24V184c0-13.232,10.768-24,24-24h8V480z
				 M416,480H64V160h16v288h320V160h16V480z M480,456c0,13.232-10.768,24-24,24h-24V160h24c13.232,0,24,10.768,24,24V456z"/>
			<rect x="448" y="288" width="16" height="64"/>
			<path d="M240,64c-35.288,0-64,28.712-64,64c0,35.288,28.712,64,64,64c35.288,0,64-28.712,64-64C304,92.712,275.288,64,240,64z
				 M240,176c-26.472,0-48-21.528-48-48s21.528-48,48-48s48,21.528,48,48S266.472,176,240,176z"/>
			<rect x="112" y="336" width="120" height="16"/>
			<rect x="112" y="368" width="120" height="16"/>
			<rect x="112" y="400" width="120" height="16"/>
			<rect x="248" y="240" width="120" height="16"/>
			<rect x="248" y="272" width="120" height="16"/>
			<rect x="248" y="304" width="120" height="16"/>
			<rect x="248" y="336" width="120" height="16"/>
			<rect x="248" y="368" width="120" height="16"/>
			<rect x="248" y="400" width="120" height="16"/>
			<path d="M112,320h120v-80H112V320z M128,256h88v48h-88V256z"/>
		</g>
	</g>
</g>
<g>
</g>
<g>
</g>
<g>
</g>
<g>
</g>
<g>
</g>
<g>
</g>
<g>
</g>
<g>
</g>
<g>
</g>
<g>
</g>
<g>
</g>
<g>
</g>
<g>
</g>
<g>
</g>
<g>
</g>
</svg>
