<?xml version="1.0" encoding="iso-8859-1"?>
<!-- Generator: Adobe Illustrator 19.0.0, SVG Export Plug-In . SVG Version: 6.00 Build 0)  -->
<svg version="1.1" id="Layer_1" xmlns="http://www.w3.org/2000/svg" xmlns:xlink="http://www.w3.org/1999/xlink" x="0px" y="0px"
	 viewBox="0 0 496 496" style="enable-background:new 0 0 496 496;" xml:space="preserve">
<g>
	<g>
		<g>
			<path d="M120,248c0,13.232,10.768,24,24,24s24-10.768,24-24s-10.768-24-24-24S120,234.768,120,248z M152,248c0,4.408-3.592,8-8,8
				s-8-3.592-8-8c0-4.408,3.592-8,8-8S152,243.592,152,248z"/>
			<path d="M456,144H328.424l30.4-31.896L279.768,33.04L200,112.808V0H88v144H40c-22.056,0-40,17.944-40,40v272
				c0,22.056,17.944,40,40,40h416c22.056,0,40-17.944,40-40V184C496,161.944,478.056,144,456,144z M279.768,55.664l56.704,56.704
				L260.568,192H144c-0.2,0-0.4,0.032-0.6,0.032L279.768,55.664z M376,208v80H144c-22.056,0-40-17.944-40-40
				c0-22.056,17.944-40,40-40H376z M103.992,16H184v112.808l-79.6,79.6l0.016,0.016c-0.144,0.144-0.272,0.312-0.424,0.464V16z
				 M48,480h-8c-13.232,0-24-10.768-24-24V184c0-13.232,10.768-24,24-24h8V480z M416,480H64V160h24v88c0,30.88,25.12,56,56,56h248
				V192H282.68l30.496-32H416V480z M480,456c0,13.232-10.768,24-24,24h-24V160h24c13.232,0,24,10.768,24,24V456z"/>
			<rect x="448" y="288" width="16" height="64"/>
			<path d="M128,336c-26.472,0-48,21.528-48,48s21.528,48,48,48s48-21.528,48-48S154.472,336,128,336z M128,416
				c-17.648,0-32-14.352-32-32s14.352-32,32-32s32,14.352,32,32S145.648,416,128,416z"/>
			<path d="M240,336c-26.472,0-48,21.528-48,48s21.528,48,48,48s48-21.528,48-48S266.472,336,240,336z M240,416
				c-17.648,0-32-14.352-32-32s14.352-32,32-32s32,14.352,32,32S257.648,416,240,416z"/>
			<path d="M352,336c-26.472,0-48,21.528-48,48s21.528,48,48,48s48-21.528,48-48S378.472,336,352,336z M352,416
				c-17.648,0-32-14.352-32-32s14.352-32,32-32s32,14.352,32,32S369.648,416,352,416z"/>
			<rect x="80" y="448" width="96" height="16"/>
			<rect x="192" y="448" width="96" height="16"/>
			<rect x="304" y="448" width="96" height="16"/>
		</g>
	</g>
</g>
<g>
</g>
<g>
</g>
<g>
</g>
<g>
</g>
<g>
</g>
<g>
</g>
<g>
</g>
<g>
</g>
<g>
</g>
<g>
</g>
<g>
</g>
<g>
</g>
<g>
</g>
<g>
</g>
<g>
</g>
</svg>
