<?xml version="1.0" encoding="iso-8859-1"?>
<!-- Generator: Adobe Illustrator 19.0.0, SVG Export Plug-In . SVG Version: 6.00 Build 0)  -->
<svg version="1.1" id="Layer_1" xmlns="http://www.w3.org/2000/svg" xmlns:xlink="http://www.w3.org/1999/xlink" x="0px" y="0px"
	 viewBox="0 0 496 496" style="enable-background:new 0 0 496 496;" xml:space="preserve">
<g>
	<g>
		<g>
			<path d="M456,0H40C17.944,0,0,17.944,0,40v208c0,22.056,17.944,40,40,40h40.808C80.288,293.264,80,298.6,80,304
				c0,67.816,42.424,127.616,105.952,150.424C192.336,478.32,214.12,496,240,496s47.664-17.68,54.048-41.576
				C357.576,431.616,400,371.816,400,304c0-5.4-0.288-10.736-0.808-16H456c22.056,0,40-17.944,40-40V40C496,17.944,478.056,0,456,0z
				 M48,272h-8c-13.232,0-24-10.768-24-24V40c0-13.232,10.768-24,24-24h8V272z M280,440c0,22.056-17.944,40-40,40
				c-22.056,0-40-17.944-40-40v-8h80V440z M280,416h-80v-16h80V416z M232,264v120h-32V264H232z M208,248l32-42.664L272,248H208z
				 M280,384h-32V264h32V384z M296,436.608V253.336l-56-74.664l-56,74.664v183.272C130.904,414.256,96,362.392,96,304
				c0-79.4,64.6-144,144-144s144,64.6,144,144C384,362.392,349.096,414.256,296,436.608z M416,272h-19.224
				C381.912,199.056,317.272,144,240,144S98.088,199.056,83.224,272H64V16h352V272z M480,248c0,13.232-10.768,24-24,24h-24V16h24
				c13.232,0,24,10.768,24,24V248z"/>
			<rect x="448" y="112" width="16" height="64"/>
			<rect x="144" y="32" width="192" height="16"/>
			<rect x="144" y="64" width="192" height="16"/>
			<rect x="144" y="96" width="192" height="16"/>
		</g>
	</g>
</g>
<g>
</g>
<g>
</g>
<g>
</g>
<g>
</g>
<g>
</g>
<g>
</g>
<g>
</g>
<g>
</g>
<g>
</g>
<g>
</g>
<g>
</g>
<g>
</g>
<g>
</g>
<g>
</g>
<g>
</g>
</svg>
