<?xml version="1.0" encoding="iso-8859-1"?>
<!-- Generator: Adobe Illustrator 19.0.0, SVG Export Plug-In . SVG Version: 6.00 Build 0)  -->
<svg version="1.1" id="Layer_1" xmlns="http://www.w3.org/2000/svg" xmlns:xlink="http://www.w3.org/1999/xlink" x="0px" y="0px"
	 viewBox="0 0 496 496" style="enable-background:new 0 0 496 496;" xml:space="preserve">
<g>
	<g>
		<g>
			<path d="M456,64H40C17.944,64,0,81.944,0,104v288c0,22.056,17.944,40,40,40h416c22.056,0,40-17.944,40-40V104
				C496,81.944,478.056,64,456,64z M48,416h-8c-13.232,0-24-10.768-24-24V104c0-13.232,10.768-24,24-24h8V416z M416,416H64V80h352
				V416z M480,392c0,13.232-10.768,24-24,24h-24V80h24c13.232,0,24,10.768,24,24V392z"/>
			<rect x="448" y="216" width="16" height="64"/>
			<path d="M240,328c44.112,0,80-35.888,80-80s-35.888-80-80-80s-80,35.888-80,80S195.888,328,240,328z M240,184
				c35.288,0,64,28.712,64,64c0,35.288-28.712,64-64,64c-35.288,0-64-28.712-64-64C176,212.712,204.712,184,240,184z"/>
			<path d="M132.44,300.864l-28.064,16.208l8,13.856l27.984-16.16c8.72,12.976,19.904,24.152,32.872,32.872l-16.16,27.984l13.856,8
				l16.208-28.064c13.704,6.76,28.84,10.968,44.864,12.032V400h16v-32.408c16.024-1.064,31.16-5.264,44.864-12.032l16.208,28.064
				l13.856-8l-16.16-27.984c12.976-8.72,24.152-19.904,32.872-32.872l27.984,16.16l8-13.856l-28.064-16.208
				c6.76-13.704,10.968-28.84,12.032-44.864H392v-16h-32.408c-1.064-16.024-5.264-31.16-12.032-44.864l28.064-16.208l-8-13.856
				l-27.984,16.16c-8.72-12.976-19.904-24.152-32.872-32.872l16.16-27.984l-13.856-8l-16.208,28.064
				c-13.704-6.76-28.84-10.968-44.864-12.032V96h-16v32.408c-16.024,1.064-31.16,5.264-44.864,12.032l-16.208-28.064l-13.856,8
				l16.16,27.984c-12.976,8.72-24.152,19.904-32.872,32.872l-27.984-16.16l-8,13.856l28.064,16.208
				c-6.76,13.704-10.968,28.84-12.032,44.864H88v16h32.408C121.472,272.024,125.672,287.16,132.44,300.864z M240,144
				c57.344,0,104,46.656,104,104s-46.656,104-104,104s-104-46.656-104-104S182.656,144,240,144z"/>
			<rect x="232" y="240" width="16" height="16"/>
			<rect x="264" y="240" width="16" height="16"/>
			<rect x="200" y="240" width="16" height="16"/>
			<rect x="232" y="208" width="16" height="16"/>
			<rect x="232" y="272" width="16" height="16"/>
		</g>
	</g>
</g>
<g>
</g>
<g>
</g>
<g>
</g>
<g>
</g>
<g>
</g>
<g>
</g>
<g>
</g>
<g>
</g>
<g>
</g>
<g>
</g>
<g>
</g>
<g>
</g>
<g>
</g>
<g>
</g>
<g>
</g>
</svg>
