<?xml version="1.0" encoding="iso-8859-1"?>
<!-- Generator: Adobe Illustrator 19.0.0, SVG Export Plug-In . SVG Version: 6.00 Build 0)  -->
<svg version="1.1" id="Layer_1" xmlns="http://www.w3.org/2000/svg" xmlns:xlink="http://www.w3.org/1999/xlink" x="0px" y="0px"
	 viewBox="0 0 496 496" style="enable-background:new 0 0 496 496;" xml:space="preserve">
<g>
	<g>
		<g>
			<path d="M456,144h-56.808c0.528-2.584,0.808-5.264,0.808-8c0-22.056-17.944-40-40-40c-6.624,0-12.784,1.768-18.288,4.632
				l-64.776-45.344C278.896,50.576,280,45.416,280,40c0-22.056-17.944-40-40-40c-22.056,0-40,17.944-40,40
				c0,5.416,1.104,10.576,3.064,15.288l-64.776,45.344C132.784,97.768,126.624,96,120,96c-22.056,0-40,17.944-40,40
				c0,2.736,0.28,5.416,0.808,8H40c-22.056,0-40,17.944-40,40v272c0,22.056,17.944,40,40,40h416c22.056,0,40-17.944,40-40V184
				C496,161.944,478.056,144,456,144z M360,112c13.232,0,24,10.768,24,24s-10.768,24-24,24s-24-10.768-24-24S346.768,112,360,112z
				 M349.2,174.328L324.52,242.2c-3.968-1.312-8.128-2.2-12.52-2.2c-5.248,0-10.24,1.08-14.832,2.928l-44.024-69.184l75.136-13.664
				C333.464,166.896,340.744,171.936,349.2,174.328z M336,280c0,13.232-10.768,24-24,24s-24-10.768-24-24s10.768-24,24-24
				S336,266.768,336,280z M283.776,251.696c-5.464,5.448-9.368,12.464-10.968,20.304h-65.616c-1.6-7.84-5.504-14.856-10.968-20.304
				L240,182.904L283.776,251.696z M328.88,111.184c-5.472,6.84-8.88,15.392-8.88,24.816c0,3.152,0.456,6.176,1.144,9.12L248,158.416
				V79.192c7.688-1.568,14.552-5.368,19.952-10.656L328.88,111.184z M240,16c13.232,0,24,10.768,24,24s-10.768,24-24,24
				s-24-10.768-24-24S226.768,16,240,16z M212.048,68.536c5.4,5.288,12.264,9.088,19.952,10.656v79.224l-73.144-13.296
				c0.688-2.944,1.144-5.968,1.144-9.12c0-9.424-3.408-17.976-8.88-24.816L212.048,68.536z M151.728,160.08l75.136,13.664
				l-44.024,69.184C178.24,241.08,173.248,240,168,240c-4.392,0-8.552,0.888-12.504,2.2l-24.68-67.872
				C139.264,171.936,146.544,166.896,151.728,160.08z M192,280c0,13.232-10.768,24-24,24s-24-10.768-24-24s10.768-24,24-24
				S192,266.768,192,280z M120,112c13.232,0,24,10.768,24,24s-10.768,24-24,24s-24-10.768-24-24S106.768,112,120,112z M48,480h-8
				c-13.232,0-24-10.768-24-24V184c0-13.232,10.768-24,24-24h8V480z M416,480H64V160h24v-0.248
				c6.192,8.312,15.48,14.08,26.184,15.664l27.24,74.92C133.248,257.656,128,268.184,128,280c0,22.056,17.944,40,40,40
				c19.312,0,35.472-13.768,39.192-32h65.616c3.72,18.232,19.872,32,39.192,32c22.056,0,40-17.944,40-40
				c0-11.816-5.248-22.344-13.424-29.672l27.24-74.92c10.704-1.576,19.992-7.344,26.184-15.656V160h24V480z M480,456
				c0,13.232-10.768,24-24,24h-24V160h24c13.232,0,24,10.768,24,24V456z"/>
			<rect x="448" y="288" width="16" height="64"/>
			<path d="M80,456h144V344H80V456z M96,360h112v80H96V360z"/>
			<rect x="240" y="440" width="128" height="16"/>
			<rect x="240" y="408" width="160" height="16"/>
			<rect x="240" y="376" width="160" height="16"/>
			<rect x="240" y="344" width="160" height="16"/>
			<rect x="384" y="440" width="16" height="16"/>
		</g>
	</g>
</g>
<g>
</g>
<g>
</g>
<g>
</g>
<g>
</g>
<g>
</g>
<g>
</g>
<g>
</g>
<g>
</g>
<g>
</g>
<g>
</g>
<g>
</g>
<g>
</g>
<g>
</g>
<g>
</g>
<g>
</g>
</svg>
