<?xml version="1.0" encoding="iso-8859-1"?>
<!-- Generator: Adobe Illustrator 19.0.0, SVG Export Plug-In . SVG Version: 6.00 Build 0)  -->
<svg version="1.1" id="Layer_1" xmlns="http://www.w3.org/2000/svg" xmlns:xlink="http://www.w3.org/1999/xlink" x="0px" y="0px"
	 viewBox="0 0 496 496" style="enable-background:new 0 0 496 496;" xml:space="preserve">
<g>
	<g>
		<g>
			<rect x="224" y="448" width="64" height="16"/>
			<rect x="192" y="112" width="112" height="16"/>
			<rect x="192" y="144" width="112" height="16"/>
			<rect x="192" y="176" width="112" height="16"/>
			<path d="M32,192h144v-80H32V192z M48,128h112v48H48V128z"/>
			<path d="M432,256V40c0-22.056-17.944-40-40-40H120C97.944,0,80,17.944,80,40v40H0v144h80v232c0,22.056,17.944,40,40,40h272
				c22.056,0,40-17.944,40-40v-56h64V256H432z M96,40c0-13.232,10.768-24,24-24h272c13.232,0,24,10.768,24,24v8H96V40z M16,208V96
				h304v112H16z M416,456c0,13.232-10.768,24-24,24H120c-13.232,0-24-10.768-24-24v-24h320V456z M416,416H96V224h240V80H96V64h320
				v192H160v144h256V416z M480,384H176V272h304V384z"/>
			<rect x="352" y="288" width="112" height="16"/>
			<rect x="352" y="320" width="112" height="16"/>
			<rect x="352" y="352" width="112" height="16"/>
			<path d="M336,288H192v80h144V288z M320,352H208v-48h112V352z"/>
		</g>
	</g>
</g>
<g>
</g>
<g>
</g>
<g>
</g>
<g>
</g>
<g>
</g>
<g>
</g>
<g>
</g>
<g>
</g>
<g>
</g>
<g>
</g>
<g>
</g>
<g>
</g>
<g>
</g>
<g>
</g>
<g>
</g>
</svg>
