<?xml version="1.0" encoding="iso-8859-1"?>
<!-- Generator: Adobe Illustrator 19.0.0, SVG Export Plug-In . SVG Version: 6.00 Build 0)  -->
<svg version="1.1" id="Layer_1" xmlns="http://www.w3.org/2000/svg" xmlns:xlink="http://www.w3.org/1999/xlink" x="0px" y="0px"
	 viewBox="0 0 497.832 497.832" style="enable-background:new 0 0 497.832 497.832;" xml:space="preserve">
<g>
	<g>
		<g>
			<path d="M376.916,0c-45.944,0-85.896,25.984-106.048,64H40.916c-22.056,0-40,17.944-40,40v240c0,22.056,17.944,40,40,40h72v32
				h-48v16h248v20.12l64,45.712l64-45.712v-55.432L420.228,376l20.688-20.68v-30.624L420.228,304l20.688-20.688V221.4
				c34.664-21.928,56-60.352,56-101.4C496.916,53.832,443.084,0,376.916,0z M281.124,192H48.916v-80h208.408
				c-0.176,2.656-0.408,5.296-0.408,8C256.916,146.304,265.716,171.504,281.124,192z M280.916,416h-152v-32h152V416z M312.916,416
				h-16v-32h16V416z M312.916,368h-272c-13.232,0-24-10.768-24-24v-8h296V368z M312.916,320h-296V104c0-13.232,10.768-24,24-24h223
				c-1.848,5.2-3.464,10.504-4.584,16H32.916v112h262.616c5.336,4.944,11.136,9.448,17.384,13.4V320z M428.908,209.976l-3.992,2.312
				v64.4L397.604,304l27.312,27.32v17.376L397.604,376l27.312,27.312v40.568l-40,28.568V248h-16v224.456l-40-28.568v-231.6
				l-3.992-2.312c-32.08-18.592-52.008-53.064-52.008-89.976c0-57.344,46.656-104,104-104s104,46.656,104,104
				C480.916,156.912,460.988,191.384,428.908,209.976z"/>
			<path d="M376.916,32c-22.056,0-40,17.944-40,40c0,22.056,17.944,40,40,40c22.056,0,40-17.944,40-40
				C416.916,49.944,398.972,32,376.916,32z M376.916,96c-13.232,0-24-10.768-24-24s10.768-24,24-24s24,10.768,24,24
				S390.148,96,376.916,96z"/>
			<rect x="368.916" y="216" width="16" height="16"/>
			<rect x="32.916" y="224" width="264" height="16"/>
			<rect x="32.916" y="256" width="264" height="16"/>
			<rect x="32.916" y="288" width="232" height="16"/>
			<rect x="280.916" y="288" width="16" height="16"/>
		</g>
	</g>
</g>
<g>
</g>
<g>
</g>
<g>
</g>
<g>
</g>
<g>
</g>
<g>
</g>
<g>
</g>
<g>
</g>
<g>
</g>
<g>
</g>
<g>
</g>
<g>
</g>
<g>
</g>
<g>
</g>
<g>
</g>
</svg>
